<!DOCTYPE svg PUBLIC "-//W3C//DTD SVG 20010904//EN" "http://www.w3.org/TR/2001/REC-SVG-20010904/DTD/svg10.dtd">
<svg version="1.0" xmlns="http://www.w3.org/2000/svg" width="1024px" height="819px" viewBox="0 0 10240 8190" preserveAspectRatio="xMidYMid meet">
<g id="layer101" fill="#060606" stroke="none">
 <path d="M0 4095 l0 -4095 5120 0 5120 0 0 4095 0 4095 -5120 0 -5120 0 0 -4095z"/>
 </g>
<g id="layer102" fill="#303030" stroke="none">
 <path d="M0 4095 l0 -4095 5120 0 5120 0 0 4095 0 4095 -5120 0 -5120 0 0 -4095z m9170 3312 c33 -17 36 -40 9 -66 -34 -32 -80 -36 -125 -13 -22 11 -52 24 -68 29 -36 10 -42 25 -21 47 20 20 167 22 205 3z m-321 -217 c88 -12 104 -22 99 -66 -2 -18 -1 -32 2 -32 44 9 208 -107 196 -139 -3 -8 -2 -12 3 -9 16 10 45 -48 52 -103 5 -35 18 -69 36 -94 26 -37 37 -46 83 -67 23 -11 24 -56 1 -104 -26 -53 -26 -76 -1 -123 11 -21 20 -47 20 -59 0 -12 20 -42 45 -67 25 -26 45 -50 45 -55 0 -5 -7 -25 -15 -45 -26 -63 -37 -130 -39 -232 -1 -89 -5 -107 -31 -160 -30 -61 -86 -111 -109 -98 -6 3 -8 3 -4 -2 4 -4 -2 -20 -13 -36 -11 -15 -29 -49 -40 -75 -14 -32 -24 -43 -31 -36 -7 7 2 33 29 84 30 57 47 77 77 92 31 15 45 32 70 85 28 59 31 74 28 146 -2 60 4 106 23 180 14 55 25 100 25 102 0 1 -15 17 -34 35 -20 19 -43 56 -54 88 -11 30 -25 69 -33 86 -11 29 -10 38 14 92 28 62 27 92 -2 92 -38 0 -111 105 -111 160 -1 47 -26 90 -89 154 -33 35 -72 62 -107 76 -52 22 -59 30 -55 71 3 25 -24 32 -159 37 -124 4 -126 4 -157 -22 -17 -14 -46 -29 -65 -32 -18 -3 -86 -22 -151 -41 -95 -28 -120 -33 -132 -23 -8 7 -15 19 -15 26 0 21 -23 17 -38 -7 -8 -12 -19 -18 -28 -15 -8 3 -13 2 -10 -2 3 -5 -15 -31 -39 -59 -25 -28 -45 -56 -45 -62 0 -18 -45 -31 -84 -24 -28 4 -36 2 -36 -9 0 -8 -12 -31 -27 -51 -21 -27 -44 -42 -90 -57 -34 -12 -67 -28 -73 -36 -26 -30 -69 -4 -70 42 0 30 -8 34 -41 22 -21 -7 -29 -16 -29 -34 0 -39 -48 -80 -170 -145 -162 -86 -261 -154 -368 -253 -59 -54 -107 -89 -129 -95 -22 -6 -64 -37 -108 -78 -88 -83 -282 -202 -385 -236 -69 -23 -76 -28 -94 -66 -15 -32 -24 -40 -38 -35 -35 11 -99 -7 -134 -39 -27 -23 -44 -30 -72 -29 -64 3 -124 -24 -178 -79 -52 -53 -98 -82 -150 -93 -20 -5 -65 -39 -126 -96 -53 -49 -99 -86 -103 -82 -3 4 -5 2 -3 -3 2 -6 -18 -35 -43 -65 -26 -30 -56 -73 -67 -95 -26 -51 -51 -74 -197 -180 -133 -97 -186 -126 -260 -144 -70 -17 -131 -56 -160 -101 -17 -27 -34 -40 -57 -45 -18 -4 -52 -20 -75 -36 -23 -16 -50 -29 -61 -29 -10 0 -27 -9 -36 -19 -10 -11 -41 -29 -69 -42 -44 -19 -71 -23 -172 -24 -66 -1 -128 -3 -137 -4 -9 0 -37 -19 -62 -40 -34 -29 -60 -42 -103 -51 -84 -17 -141 -45 -155 -74 -10 -24 -16 -26 -83 -26 -78 0 -169 -22 -199 -48 -13 -12 -41 -18 -100 -20 -123 -4 -124 -5 -128 -55 -4 -59 -30 -60 -135 -7 l-82 43 -53 -18 c-29 -9 -67 -28 -85 -41 -43 -33 -60 -30 -80 13 -28 58 -73 83 -151 83 -55 0 -72 4 -104 26 -27 19 -46 25 -65 21 -38 -7 -63 9 -63 39 0 15 -12 38 -29 55 -28 27 -34 29 -100 27 -62 -1 -74 1 -95 21 -34 32 -49 23 -50 -30 -1 -42 -3 -44 -32 -47 -22 -2 -40 4 -60 21 -78 65 -169 81 -454 81 -208 0 -302 -11 -346 -41 -27 -17 -64 -14 -81 7 -10 13 -16 13 -45 1 -59 -24 -83 -24 -146 3 -90 38 -108 35 -134 -19 -22 -44 -22 -45 -4 -102 10 -32 22 -91 27 -132 5 -40 13 -79 20 -87 7 -9 9 -30 4 -60 -5 -34 -2 -52 9 -70 12 -17 16 -44 14 -102 l-2 -78 72 -83 c84 -97 85 -106 47 -227 -29 -90 -31 -144 -10 -204 20 -56 19 -78 -4 -123 -10 -20 -22 -63 -26 -94 -6 -50 -9 -55 -18 -36 -13 29 6 129 29 155 16 17 15 23 -6 94 -25 85 -23 105 16 227 16 46 23 88 20 102 -4 14 -33 53 -65 87 -80 87 -85 97 -76 180 5 55 3 73 -8 86 -9 10 -18 45 -20 82 -10 118 -28 233 -43 268 -20 48 -18 99 7 138 38 62 53 64 165 17 l62 -25 47 21 c58 26 60 26 83 1 19 -20 19 -20 63 -1 72 32 204 44 419 38 237 -6 320 -22 382 -73 50 -43 74 -41 70 4 -5 69 35 93 79 46 20 -22 32 -25 74 -24 27 2 60 2 72 1 29 -1 93 -58 93 -81 0 -37 10 -46 46 -42 26 3 44 -2 67 -19 25 -18 47 -24 101 -26 88 -4 149 -36 167 -87 l13 -35 27 20 c44 31 111 59 145 59 17 0 67 -18 110 -40 43 -22 85 -40 92 -40 7 0 12 14 12 39 0 21 6 43 13 49 6 5 53 12 102 15 69 4 102 11 140 30 59 30 164 51 206 42 24 -6 33 -2 50 19 27 34 77 59 163 80 51 13 80 27 108 52 22 19 43 32 48 29 6 -4 10 -2 10 4 0 6 46 10 123 9 105 -1 130 2 181 22 35 13 60 30 63 40 6 22 29 33 53 25 10 -3 32 7 55 25 21 16 54 34 75 40 24 6 41 19 48 35 18 39 89 83 176 110 49 15 108 43 149 70 37 25 73 43 79 39 6 -4 8 -3 5 3 -9 14 19 37 34 27 7 -4 9 -3 6 3 -4 6 27 34 67 64 57 41 79 65 94 99 24 54 85 125 207 240 101 97 121 111 185 129 31 9 60 30 100 71 59 60 134 96 192 92 17 -2 44 10 72 30 33 23 59 32 99 36 50 4 54 6 63 36 8 28 17 34 85 57 42 14 108 43 145 66 38 22 96 55 128 74 33 19 93 67 133 107 41 39 81 72 90 72 9 0 35 11 58 25 23 13 45 21 49 17 4 -3 5 0 2 8 -5 18 112 124 206 186 35 23 113 68 173 100 147 77 173 96 181 140 5 29 14 39 41 51 47 19 66 14 74 -23 10 -51 18 -58 43 -36 11 11 41 26 66 32 36 10 117 60 96 60 -4 0 0 14 9 30 14 27 21 30 62 30 36 0 51 5 68 24 13 14 21 27 19 29 -6 6 134 137 145 137 5 0 19 -12 30 -27 l21 -26 63 18 c34 10 98 28 142 39 44 12 90 30 103 41 39 34 117 42 251 25z m631 -1375 c0 -11 11 -15 38 -15 44 0 155 -50 195 -88 56 -53 26 -87 -100 -109 -48 -8 -96 -19 -106 -25 -24 -12 -37 -49 -37 -101 0 -61 -15 -103 -49 -143 -35 -39 -37 -50 -17 -73 13 -15 20 -40 17 -69 -1 -11 -15 -12 -63 -8 l-63 7 -58 -65 c-52 -58 -56 -67 -47 -91 19 -51 12 -85 -25 -120 -19 -19 -48 -36 -64 -40 -33 -7 -35 -11 -52 -110 -24 -144 -67 -233 -148 -307 -43 -40 -51 -53 -51 -83 0 -46 21 -87 81 -154 27 -30 49 -60 49 -66 0 -7 -11 -25 -25 -41 -22 -24 -25 -36 -20 -70 9 -62 -3 -67 -121 -49 -125 19 -154 19 -154 1 0 -16 21 -26 55 -26 37 0 55 -26 55 -80 0 -60 -19 -82 -66 -78 -40 3 -50 -5 -29 -22 44 -36 -7 -82 -100 -90 -59 -5 -60 -6 -57 -33 2 -15 16 -61 33 -102 16 -41 32 -89 35 -107 12 -74 14 -78 36 -78 27 0 58 -27 58 -50 0 -27 -24 -41 -59 -34 -27 6 -31 4 -31 -15 0 -34 -28 -91 -55 -112 -33 -27 -43 -83 -20 -109 22 -24 104 -50 159 -50 50 0 69 -11 64 -36 -4 -22 -61 -52 -114 -61 -29 -5 -40 -2 -50 12 -12 17 -15 17 -49 -4 -23 -13 -45 -19 -60 -15 -12 3 -26 1 -30 -5 -3 -6 -11 -9 -16 -6 -5 3 -6 0 -3 -8 3 -8 -2 -20 -12 -27 -14 -12 -23 -10 -68 14 -43 23 -59 27 -96 21 -31 -4 -56 -1 -82 9 -21 9 -51 16 -67 16 -20 0 -35 8 -45 22 -15 21 -18 21 -48 9 -18 -8 -50 -16 -70 -18 -35 -5 -38 -8 -38 -36 0 -45 -25 -67 -77 -67 -74 0 -107 -29 -58 -52 30 -14 32 -28 6 -50 -11 -9 -23 -34 -26 -55 -10 -57 -13 -63 -33 -63 -27 0 -43 22 -49 70 -3 22 -8 39 -12 38 -3 -2 -19 -10 -35 -18 -26 -13 -28 -17 -22 -61 5 -39 3 -50 -10 -57 -16 -9 -16 -12 3 -43 31 -51 38 -95 19 -124 -10 -16 -22 -22 -32 -18 -10 4 -26 -6 -44 -26 -16 -17 -36 -31 -44 -31 -20 0 -20 -24 0 -84 20 -58 11 -82 -47 -122 -35 -24 -42 -25 -68 -14 -16 6 -39 22 -50 34 -18 19 -20 27 -11 50 8 23 6 33 -11 58 -12 16 -24 50 -27 74 -5 43 -22 73 -22 38 0 -38 -29 -54 -102 -54 -117 0 -131 -21 -76 -121 31 -56 32 -61 18 -87 -13 -22 -23 -27 -60 -29 -25 -1 -58 -3 -75 -5 -25 -3 -31 1 -33 22 -2 14 -8 29 -13 35 -14 14 -11 -27 6 -75 19 -54 19 -89 0 -96 -23 -9 -18 -24 9 -24 57 0 70 -27 41 -84 -14 -26 -14 -31 1 -47 16 -18 16 -58 -3 -150 -5 -28 -5 -29 40 -29 53 0 69 -15 71 -67 1 -33 -2 -38 -29 -46 -104 -33 -166 -65 -273 -143 -22 -16 -27 -16 -76 -1 -76 24 -110 22 -130 -8 -9 -14 -25 -25 -36 -25 -27 0 -69 42 -80 81 -11 39 8 132 37 175 22 35 27 127 23 467 0 53 -4 97 -8 97 -5 0 -14 -16 -21 -35 -8 -24 -19 -35 -32 -35 -18 0 -99 65 -98 78 1 4 0 9 -1 12 -8 22 -6 39 6 44 25 10 15 32 -23 50 -36 17 -37 17 -55 -6 -31 -41 -68 -121 -68 -150 0 -15 9 -37 20 -48 11 -11 22 -32 25 -47 11 -50 78 -226 117 -307 31 -66 38 -91 38 -141 0 -81 -14 -100 -67 -90 -55 9 -82 40 -90 104 -3 28 -10 54 -15 57 -5 3 -57 9 -115 13 -97 7 -108 10 -128 33 -12 14 -27 53 -34 88 -14 69 -30 110 -43 110 -16 0 -100 -194 -107 -245 -5 -39 -10 -50 -26 -53 -47 -8 -58 -67 -25 -129 27 -52 26 -101 -5 -143 -33 -45 -33 -92 -1 -114 33 -21 41 -52 23 -80 -16 -24 -10 -43 25 -78 12 -12 18 -29 16 -46 -3 -23 -7 -27 -30 -24 -23 2 -29 -2 -34 -25 -11 -45 -33 -63 -76 -63 -22 0 -49 5 -60 11 -16 8 -29 7 -59 -6 -38 -18 -69 -15 -69 6 0 6 33 44 73 85 39 41 75 85 78 99 5 15 -2 42 -17 75 -13 29 -24 63 -24 78 0 24 -1 24 -19 8 -25 -22 -38 -15 -46 27 -12 61 -27 89 -44 81 -69 -29 -87 -5 -77 104 8 81 -1 104 -36 94 -12 -3 -39 5 -64 18 l-42 24 -55 -19 c-52 -18 -57 -18 -100 -1 -53 20 -74 42 -92 93 -17 50 -39 52 -81 8 -32 -35 -38 -37 -75 -31 -48 8 -63 1 -50 -22 23 -44 -54 -156 -132 -192 -37 -17 -37 -17 -17 -35 25 -23 26 -51 0 -65 -16 -9 -22 -6 -36 16 -15 21 -15 29 -5 46 7 11 11 21 9 21 -29 15 -44 28 -47 43 -6 33 -33 54 -90 70 -109 30 -153 57 -135 85 8 14 -45 -9 -74 -31 -28 -23 -58 -25 -114 -8 -29 9 -54 9 -103 -1 -61 -11 -68 -10 -109 11 -24 13 -62 46 -85 75 -53 68 -98 84 -172 60 -28 -10 -63 -17 -78 -17 -33 0 -47 -9 -55 -37 -9 -29 -100 -110 -143 -128 -38 -16 -58 -11 -122 30 -22 14 -52 25 -66 25 -14 0 -43 9 -65 20 -45 23 -68 18 -76 -16 -7 -26 -31 -50 -41 -40 -4 3 -1 12 5 18 7 7 12 20 12 30 0 10 12 25 26 35 22 14 30 15 58 4 17 -7 51 -17 75 -22 24 -5 65 -23 91 -39 26 -17 56 -30 67 -30 44 0 129 73 169 145 7 13 27 23 55 28 24 4 65 14 90 22 71 23 144 -6 191 -75 45 -65 68 -75 181 -75 56 0 118 -4 137 -8 31 -7 40 -5 74 22 48 38 71 39 88 4 10 -21 27 -33 68 -46 127 -41 140 -48 158 -85 15 -31 22 -37 47 -35 35 3 93 48 120 94 11 19 22 54 25 79 l5 45 45 0 c36 0 51 6 73 28 15 16 32 25 37 22 6 -3 10 -1 10 4 0 6 11 11 25 11 27 0 48 -27 59 -73 13 -57 104 -84 178 -52 32 13 39 12 74 -5 21 -11 55 -20 75 -20 53 0 60 -14 57 -118 -2 -50 0 -93 3 -96 3 -3 19 0 36 6 41 15 57 2 72 -58 12 -45 12 -46 31 -29 26 23 53 4 44 -31 -4 -15 3 -42 20 -76 40 -80 36 -96 -44 -184 -71 -78 -82 -101 -34 -69 20 13 31 15 48 7 59 -29 116 -19 116 21 0 29 18 47 47 47 30 0 29 5 -7 47 -30 34 -39 67 -20 78 19 12 10 52 -15 69 -34 22 -35 90 -2 132 28 37 30 103 3 133 -13 14 -19 35 -19 65 1 54 16 84 47 92 20 5 25 14 29 47 5 53 67 193 102 232 l27 30 19 -24 c18 -22 26 -45 49 -136 18 -74 25 -78 144 -84 97 -5 110 -8 127 -30 11 -13 19 -39 19 -60 0 -48 17 -70 63 -81 34 -7 38 -6 43 17 12 45 -3 108 -51 213 -26 58 -62 149 -79 202 -18 54 -43 109 -55 122 -20 21 -22 31 -16 63 7 39 51 129 84 172 l18 23 52 -26 c59 -30 71 -49 47 -75 -23 -25 -21 -32 27 -79 38 -37 43 -39 44 -21 2 28 30 69 47 69 22 0 34 -49 28 -114 -2 -32 1 -89 7 -127 10 -54 10 -83 0 -141 -7 -40 -12 -97 -11 -126 1 -40 -5 -66 -24 -104 -14 -28 -28 -74 -31 -103 -5 -47 -3 -55 25 -86 l30 -33 30 32 c34 37 41 38 108 17 70 -21 92 -19 129 14 41 36 184 108 231 117 32 6 35 9 29 33 -8 32 -23 42 -55 36 -14 -2 -34 2 -44 10 -18 13 -19 21 -9 92 8 63 8 80 -3 89 -18 15 -18 38 2 75 8 17 14 32 12 33 -2 1 -22 8 -45 15 -48 13 -57 39 -23 62 20 14 20 16 5 59 -19 55 -23 116 -8 131 16 16 53 -24 53 -57 0 -21 3 -25 18 -18 9 4 37 8 62 9 39 1 45 4 48 23 2 13 -8 42 -22 67 -31 52 -33 98 -6 125 21 21 41 24 123 20 46 -2 48 -1 63 35 11 28 20 36 37 33 18 -2 23 -12 29 -50 3 -27 16 -64 28 -83 17 -27 20 -44 16 -70 -6 -28 -3 -36 16 -49 12 -9 32 -16 43 -16 29 0 88 59 79 79 -16 39 -32 114 -27 127 3 8 12 14 20 14 8 0 28 14 44 31 18 20 39 32 55 32 25 0 26 2 22 41 -3 23 -18 61 -33 84 -28 43 -28 72 1 72 14 0 16 7 11 37 -7 41 5 63 35 63 11 0 22 8 25 19 6 25 28 34 42 17 6 -7 14 -33 17 -57 7 -57 11 -69 24 -69 5 0 10 15 10 33 0 17 7 45 15 61 14 26 14 31 0 46 -36 39 -3 80 65 80 57 0 78 15 82 60 3 33 6 35 53 46 28 6 63 17 79 25 26 12 30 11 52 -14 14 -16 33 -27 49 -27 14 0 42 -7 62 -15 28 -12 44 -13 75 -5 40 11 57 7 115 -30 21 -13 25 -12 55 17 23 23 40 31 54 27 12 -3 38 4 60 15 l39 21 17 -20 c20 -25 28 -25 89 2 57 24 51 38 -17 38 -59 0 -141 27 -159 53 -30 43 -16 113 32 153 16 14 28 38 34 70 11 56 20 64 66 57 18 -3 33 -1 33 4 0 16 -23 33 -47 33 -26 0 -38 19 -47 78 -3 23 -22 80 -41 127 -55 131 -44 169 43 158 38 -4 52 -1 72 15 25 20 25 21 8 50 -15 25 -16 31 -4 41 8 7 31 11 52 9 35 -3 38 -1 46 31 14 50 -3 81 -42 81 -17 0 -41 9 -53 20 -54 51 35 73 186 47 l77 -13 0 51 c0 39 5 56 20 70 26 24 25 37 -5 65 -48 46 -95 124 -101 172 l-7 46 70 70 c81 80 111 143 138 286 21 113 26 123 76 137 50 16 83 54 75 89 -20 86 -22 81 47 154 68 72 84 79 150 62 22 -5 27 -3 27 12 0 9 -9 25 -20 35 -28 24 -25 41 16 87 36 40 38 44 60 208 7 44 33 59 134 75 47 7 95 19 108 26 21 11 22 14 9 34 -23 35 -126 87 -174 87 -30 0 -49 6 -63 20 -26 26 -27 25 -43 -7 -27 -53 -29 -81 -7 -88 12 -4 20 -15 20 -28 0 -38 -43 -84 -139 -148 -59 -39 -97 -72 -100 -84 -6 -38 -31 -55 -82 -55 -41 0 -59 -7 -113 -44 -51 -35 -77 -46 -118 -50 -80 -7 -148 -3 -148 11 0 7 32 12 98 15 96 3 97 3 162 48 55 38 72 45 115 45 47 0 50 1 59 33 7 26 25 42 85 80 77 48 161 121 161 140 0 6 -9 14 -20 17 -31 10 -21 96 16 136 21 23 64 25 64 4z m-116 -77 c0 -10 -1 -40 -2 -66 -3 -71 -46 -114 -80 -80 -25 25 -10 112 26 151 20 22 57 19 56 -5z m-219 -178 c-12 -20 -173 -90 -221 -97 -49 -6 -51 -13 -28 -68 13 -31 13 -39 2 -46 -18 -12 -180 -11 -198 1 -14 9 59 15 132 10 43 -2 48 6 32 52 -8 23 -13 47 -10 54 2 6 31 16 63 22 66 12 181 61 202 86 16 19 38 6 26 -14z m-545 -244 c-6 -8 -18 -12 -27 -9 -12 5 -12 7 -1 14 7 5 19 9 27 9 11 0 11 -3 1 -14z m101 -30 c-16 -19 -71 -27 -71 -10 0 12 22 20 64 23 15 1 16 -2 7 -13z m-108 -15 c5 -5 1 -12 -12 -16 -24 -7 -41 1 -41 20 0 15 37 12 53 -4z m351 -1392 c45 -35 27 -111 -45 -194 -60 -68 -86 -40 -96 102 -7 101 0 113 67 113 33 0 55 -6 74 -21z m-7797 -751 c-3 -8 -6 -5 -6 6 -1 11 2 17 5 13 3 -3 4 -12 1 -19z m-9 -80 c-9 -13 -19 -38 -23 -56 -9 -45 -26 -48 -77 -18 -40 23 -51 25 -114 19 -66 -6 -71 -8 -108 -50 -22 -23 -45 -43 -53 -43 -7 0 -20 12 -30 26 -15 24 -22 26 -65 22 -78 -8 -85 -20 -90 -156 -3 -81 -10 -131 -22 -162 -10 -25 -21 -64 -23 -88 -6 -55 12 -76 83 -97 43 -12 58 -23 81 -57 23 -35 36 -44 67 -49 70 -11 86 -62 35 -110 -39 -36 -32 -63 19 -80 51 -16 60 -25 74 -71 6 -22 21 -47 33 -56 27 -21 45 -54 45 -80 0 -11 9 -26 20 -33 12 -9 23 -32 29 -62 9 -51 30 -81 73 -103 39 -20 68 -17 124 11 27 14 55 25 62 25 7 0 28 -17 47 -37 33 -36 38 -38 102 -40 38 -1 129 -5 204 -10 127 -8 138 -11 168 -36 l32 -26 43 44 c34 36 49 45 77 45 41 0 92 -29 116 -67 10 -15 22 -31 28 -35 17 -12 64 -9 94 7 22 11 37 12 64 4 20 -5 39 -14 42 -19 3 -4 23 -11 46 -15 36 -6 44 -4 70 21 41 39 87 114 95 152 7 35 18 47 34 37 6 -4 2 -18 -10 -36 -12 -16 -19 -33 -16 -38 8 -13 -69 -125 -99 -145 -34 -22 -86 -20 -139 6 -40 19 -49 20 -83 9 -21 -7 -56 -11 -78 -9 -33 2 -43 9 -65 42 -46 68 -100 84 -140 41 -12 -13 -28 -22 -34 -18 -6 3 -8 2 -3 -2 10 -11 -22 -45 -43 -45 -10 0 -23 7 -31 16 -26 32 -68 45 -142 43 -101 -3 -307 12 -307 22 0 5 -4 8 -9 6 -6 -1 -23 13 -39 32 l-28 34 -30 -22 c-19 -14 -51 -24 -85 -27 -46 -5 -59 -2 -89 18 -46 32 -80 84 -80 124 0 23 -6 37 -20 44 -12 6 -20 21 -20 36 0 16 -12 37 -31 55 -17 16 -38 50 -47 75 -14 38 -23 48 -55 59 -75 26 -92 63 -46 106 17 16 29 37 29 53 0 22 -5 27 -41 32 -42 7 -74 33 -89 71 -6 15 -26 26 -65 38 -105 30 -121 69 -79 194 23 70 28 105 30 186 1 108 8 139 31 131 8 -3 11 -1 8 4 -9 14 39 30 90 30 31 0 48 -5 57 -18 14 -20 54 -39 42 -21 -10 16 46 68 85 79 59 16 133 12 174 -10 46 -25 47 -25 47 4 0 24 46 83 57 72 3 -3 -1 -16 -9 -28z m6602 -490 c29 -31 26 -77 -8 -118 -16 -18 -33 -30 -40 -27 -13 9 -26 108 -18 142 8 31 38 33 66 3z m-4978 -695 c28 -33 28 -51 -3 -89 -32 -41 -38 -38 -12 6 14 24 14 33 3 60 -9 22 -16 28 -23 21 -6 -6 -22 -11 -36 -11 -24 0 -24 1 -5 15 26 20 58 19 76 -2z m-146 -110 c-10 -10 -34 11 -29 24 5 14 8 13 20 -2 7 -10 11 -20 9 -22z m149 -127 c26 -14 27 -16 8 -16 -23 0 -53 24 -53 43 0 9 2 9 8 0 4 -6 21 -19 37 -27z m65 -16 c0 -5 -4 -10 -9 -10 -6 0 -13 5 -16 10 -3 6 1 10 9 10 9 0 16 -4 16 -10z m50 -38 c0 -15 -2 -15 -10 -2 -13 20 -13 33 0 25 6 -3 10 -14 10 -23z m58 -69 c5 -18 -10 -16 -34 2 -18 15 -18 15 5 13 14 -2 26 -9 29 -15z m2498 -657 c9 -36 -4 -65 -32 -72 -29 -7 -54 10 -54 39 0 51 74 80 86 33z"/>
 <path d="M8990 7391 c-13 -9 -13 -11 0 -11 9 0 33 -9 55 -20 22 -11 51 -20 65 -20 34 0 75 29 61 43 -14 14 -162 21 -181 8z"/>
 <path d="M7074 6378 c-4 -7 -3 -8 4 -4 12 7 16 16 8 16 -3 0 -8 -5 -12 -12z"/>
 <path d="M4640 1366 c0 -9 5 -16 10 -16 6 0 10 4 10 9 0 6 -4 13 -10 16 -5 3 -10 -1 -10 -9z"/>
 <path d="M9322 5745 c4 -4 1 -20 -7 -36 -19 -37 -20 -99 -1 -99 19 0 26 22 26 80 0 29 -5 52 -12 56 -7 4 -10 4 -6 -1z"/>
 <path d="M8826 3864 c-8 -21 2 -138 16 -173 8 -23 9 -23 29 -5 28 25 66 92 73 130 9 39 -6 52 -66 60 -38 5 -46 3 -52 -12z"/>
 <path d="M7700 2505 c0 -61 11 -70 30 -25 10 25 10 34 -4 55 -9 14 -19 25 -21 25 -3 0 -5 -25 -5 -55z"/>
 <path d="M5383 839 c-11 -11 -6 -49 7 -49 11 0 26 23 26 39 -1 19 -19 24 -33 10z"/>
 </g>
<g id="layer103" fill="#505050" stroke="none">
 <path d="M0 4095 l0 -4095 5120 0 5120 0 0 4095 0 4095 -5120 0 -5120 0 0 -4095z m9175 3313 c37 -17 33 -53 -7 -78 -42 -25 -72 -25 -123 0 -22 10 -53 22 -68 25 -41 8 -34 46 13 63 39 14 146 8 185 -10z m-257 -229 c17 -6 32 -18 33 -27 1 -10 2 -26 3 -36 1 -13 15 -24 44 -34 90 -30 212 -177 212 -256 0 -47 40 -108 85 -132 49 -25 57 -62 26 -123 -26 -50 -26 -62 -1 -111 11 -22 20 -48 20 -59 0 -11 20 -43 45 -71 25 -28 45 -53 45 -56 0 -3 -9 -33 -20 -67 -27 -87 -40 -180 -30 -216 19 -67 -39 -198 -108 -244 -32 -22 -52 -47 -81 -105 -21 -43 -47 -84 -57 -93 -30 -26 -158 -79 -208 -85 -25 -4 -46 -11 -46 -15 0 -5 7 -27 16 -49 10 -24 13 -45 8 -50 -5 -5 -51 -10 -103 -11 -51 -1 -109 -5 -127 -9 -19 -4 -36 -4 -39 0 -3 5 -19 -4 -35 -18 -30 -26 -30 -27 -8 -35 14 -5 24 -3 29 4 4 7 30 13 58 13 28 1 51 4 51 9 0 4 38 7 85 7 95 0 126 10 206 65 45 31 60 36 98 33 43 -3 45 -2 53 30 7 28 26 44 109 98 59 38 108 78 119 97 19 31 19 32 0 39 -26 10 -26 58 -1 115 24 51 58 66 79 34 10 -15 25 -21 51 -21 69 0 211 -87 211 -129 0 -38 -57 -64 -162 -76 -83 -9 -96 -24 -107 -123 -9 -80 -14 -94 -63 -155 -19 -23 -20 -31 -10 -45 25 -35 34 -61 28 -78 -5 -14 -15 -16 -65 -10 l-58 7 -57 -58 -56 -58 6 -63 c6 -60 5 -65 -21 -92 -16 -16 -43 -35 -62 -41 -41 -13 -48 -25 -63 -119 -23 -140 -86 -267 -153 -309 -39 -24 -47 -38 -47 -82 0 -40 20 -76 80 -145 27 -31 50 -64 50 -72 0 -8 -11 -27 -25 -44 -21 -24 -24 -36 -19 -72 4 -28 2 -46 -5 -50 -6 -4 -66 0 -132 10 -89 12 -123 14 -132 5 -15 -15 -6 -21 39 -28 49 -7 64 -26 64 -81 0 -67 -12 -82 -67 -82 -45 0 -46 -1 -29 -19 41 -45 -13 -96 -99 -95 -53 1 -55 0 -55 -25 0 -15 16 -65 35 -111 19 -47 35 -98 35 -113 0 -42 16 -64 49 -70 22 -5 32 -14 37 -32 9 -37 -12 -58 -53 -50 -30 5 -33 4 -33 -18 0 -39 -21 -87 -42 -98 -11 -6 -26 -26 -34 -44 -29 -71 17 -110 142 -122 35 -3 72 -12 81 -18 15 -11 16 -15 3 -31 -38 -45 -150 -70 -168 -37 -9 15 -13 14 -46 -6 -23 -15 -45 -21 -60 -17 -17 4 -28 -1 -45 -24 -26 -37 -40 -37 -91 -5 -34 22 -48 25 -88 20 -31 -4 -62 -1 -91 9 -24 9 -55 16 -68 16 -14 0 -33 10 -43 23 -18 21 -19 22 -48 5 -17 -10 -44 -18 -60 -18 -31 0 -42 -14 -42 -54 0 -33 -19 -46 -66 -46 -24 0 -55 -5 -71 -11 l-28 -11 28 -23 c31 -27 34 -40 11 -53 -9 -5 -20 -31 -25 -58 -5 -27 -16 -55 -25 -64 -14 -13 -18 -12 -40 13 -15 18 -24 40 -24 61 l0 33 -35 -16 c-34 -16 -35 -17 -28 -60 4 -34 2 -47 -10 -56 -14 -10 -14 -16 8 -60 14 -27 25 -61 25 -76 0 -34 -26 -62 -50 -54 -11 4 -23 -3 -34 -20 -9 -13 -28 -28 -42 -31 -28 -7 -28 -8 -3 -96 12 -44 12 -50 -7 -75 -11 -16 -37 -37 -57 -48 -36 -20 -37 -20 -72 0 -47 25 -61 50 -46 83 10 20 9 28 -4 42 -19 21 -47 108 -39 121 3 5 0 9 -5 9 -6 0 -11 -9 -11 -20 0 -28 -30 -40 -102 -40 -64 0 -108 -18 -108 -43 0 -7 14 -40 32 -74 29 -56 30 -64 18 -92 -11 -29 -17 -31 -54 -30 -22 1 -57 -2 -77 -6 -36 -7 -36 -7 -44 31 -5 22 -10 32 -12 24 -2 -9 5 -44 16 -79 19 -62 19 -63 0 -82 -26 -26 -24 -29 15 -29 49 0 61 -19 41 -66 -13 -32 -14 -43 -4 -62 9 -17 10 -40 3 -92 -5 -38 -8 -73 -6 -79 2 -6 21 -11 42 -11 46 0 70 -27 70 -76 0 -32 -13 -44 -49 -44 -29 0 -173 -75 -219 -114 -48 -40 -69 -43 -132 -21 -62 22 -83 19 -114 -16 l-27 -30 -32 18 c-71 41 -82 123 -31 232 27 59 37 142 35 301 0 41 -1 121 -2 178 -1 103 -7 116 -29 63 -18 -45 -36 -45 -86 1 -52 48 -64 80 -40 107 16 18 15 20 -17 40 -19 11 -37 21 -39 21 -3 0 -21 -26 -41 -58 -45 -72 -58 -137 -32 -156 9 -7 34 -64 55 -127 21 -63 59 -159 85 -214 40 -85 48 -110 48 -162 1 -79 -13 -97 -68 -90 -57 8 -95 52 -95 112 0 24 -4 46 -9 49 -5 4 -51 9 -103 12 -51 3 -105 10 -120 16 -28 10 -50 53 -63 123 -3 21 -14 52 -22 68 l-15 30 -19 -29 c-10 -16 -19 -33 -19 -38 0 -4 -12 -31 -26 -60 -14 -28 -32 -78 -38 -111 -10 -46 -17 -61 -32 -63 -46 -8 -58 -69 -24 -124 29 -48 27 -115 -5 -158 -14 -19 -25 -44 -25 -56 0 -23 24 -54 41 -54 16 0 22 -50 9 -81 -12 -27 -11 -32 12 -57 14 -15 29 -36 32 -48 8 -25 -14 -47 -41 -42 -12 2 -21 -7 -29 -30 -6 -19 -17 -38 -25 -43 -19 -12 -86 -11 -110 1 -14 8 -27 6 -50 -5 -37 -20 -74 -16 -74 7 0 9 33 51 73 92 81 84 87 106 52 176 -11 22 -20 48 -20 60 0 11 -4 20 -10 20 -5 0 -10 -4 -10 -10 0 -17 -29 -11 -38 8 -5 9 -12 33 -16 53 -7 40 -30 67 -41 49 -9 -15 -51 -12 -65 5 -8 10 -11 43 -9 102 l4 88 -30 3 c-16 1 -51 12 -78 24 -45 21 -49 21 -82 5 -84 -40 -175 3 -204 95 -12 35 -13 36 -42 26 -17 -6 -37 -22 -46 -35 -15 -23 -22 -25 -65 -20 -46 6 -48 5 -42 -17 13 -54 -55 -157 -126 -190 -44 -20 -46 -23 -29 -34 23 -15 26 -67 4 -76 -37 -14 -70 38 -47 75 9 14 8 18 -5 21 -9 2 -26 21 -37 42 -20 37 -27 42 -116 70 -72 24 -97 36 -105 54 -12 28 -21 28 -61 -3 -36 -27 -68 -31 -128 -14 -28 8 -56 8 -101 -1 -95 -18 -143 7 -218 114 -24 35 -86 53 -126 36 -17 -6 -54 -15 -83 -19 -42 -5 -55 -11 -65 -31 -20 -40 -92 -108 -139 -131 -49 -23 -65 -21 -132 22 -25 16 -57 29 -72 29 -14 0 -41 8 -60 18 -47 24 -62 19 -82 -28 -10 -25 -23 -40 -34 -40 -9 0 -22 -7 -29 -17 -8 -11 -14 -13 -19 -5 -4 7 3 17 18 23 15 7 32 29 41 53 9 22 22 44 28 48 19 12 61 8 81 -7 11 -8 34 -15 51 -15 18 0 56 -15 89 -35 32 -19 66 -35 76 -35 33 0 137 86 151 124 14 38 47 56 101 56 16 0 45 7 65 15 66 28 133 0 189 -78 48 -66 89 -83 169 -68 48 8 71 8 114 -4 57 -15 70 -12 120 26 33 27 58 24 75 -9 12 -22 30 -32 104 -55 92 -29 109 -41 130 -90 10 -23 16 -27 35 -22 46 14 81 42 114 90 27 39 34 57 30 81 -3 17 -2 37 3 44 8 13 71 16 90 5 5 -3 14 4 20 15 14 27 65 52 98 48 21 -2 29 -11 37 -42 16 -55 65 -96 115 -96 22 0 54 7 73 16 32 15 36 15 75 -5 23 -12 57 -21 75 -21 53 0 62 -19 59 -120 -3 -81 6 -117 23 -90 3 5 17 10 30 10 28 0 50 -28 60 -78 7 -32 8 -33 26 -16 16 14 21 15 35 3 10 -8 14 -22 11 -38 -3 -15 4 -44 19 -73 41 -82 34 -109 -57 -203 -60 -62 -68 -80 -23 -50 21 14 31 15 51 6 13 -6 42 -11 64 -11 36 0 40 3 45 30 7 35 20 47 53 52 l25 3 -32 36 c-32 36 -41 72 -22 84 20 12 11 52 -15 63 -36 17 -39 101 -4 138 25 27 25 93 -1 141 -11 21 -20 45 -20 54 0 36 24 80 50 94 22 11 28 23 32 57 7 53 92 233 114 242 23 9 52 -20 64 -63 5 -20 16 -61 25 -92 9 -34 22 -60 32 -64 10 -4 65 -10 122 -14 118 -8 131 -17 131 -86 0 -51 28 -85 70 -85 23 0 31 5 36 26 11 42 -2 90 -56 212 -28 63 -65 156 -81 205 -16 50 -39 99 -49 110 -24 21 -25 50 -6 104 18 50 83 153 97 153 6 0 33 -12 60 -27 36 -19 49 -32 49 -49 0 -12 -7 -24 -15 -28 -22 -8 -19 -21 16 -61 37 -42 44 -43 61 -8 7 14 21 31 30 37 32 20 43 -7 43 -112 1 -53 5 -126 9 -162 6 -47 4 -85 -8 -138 -10 -49 -12 -81 -6 -97 7 -19 2 -39 -22 -91 -17 -37 -33 -88 -36 -115 -4 -44 -1 -51 27 -79 l31 -32 29 31 c33 35 58 38 121 16 60 -21 71 -19 121 19 51 40 145 88 207 107 38 11 43 16 40 38 -3 22 -8 26 -43 29 -63 5 -68 14 -60 110 6 72 5 85 -10 96 -16 12 -16 15 5 55 12 24 20 44 18 45 -2 1 -21 7 -43 12 -46 10 -60 44 -27 65 18 11 18 13 0 78 -22 79 -22 82 -4 106 14 19 15 19 35 1 12 -11 21 -30 21 -43 0 -26 5 -27 48 -12 22 7 36 7 51 0 36 -20 37 23 1 93 -25 50 -29 67 -22 87 16 41 37 51 122 56 67 5 80 9 80 23 0 23 24 43 46 38 12 -2 21 -20 29 -60 6 -32 19 -66 29 -77 14 -16 17 -30 12 -60 -5 -34 -3 -42 16 -55 32 -23 53 -20 90 13 l33 29 -18 65 c-19 72 -16 93 16 103 12 4 34 20 49 36 20 21 33 28 48 23 17 -5 20 -2 20 26 0 17 -14 56 -31 86 -31 54 -33 83 -4 83 13 0 15 7 9 35 -7 40 7 65 37 65 11 0 19 4 19 9 0 17 30 40 45 35 8 -3 17 -26 20 -52 4 -26 9 -55 12 -65 7 -27 23 -9 23 26 0 18 7 43 16 55 15 21 15 25 0 41 -22 24 -20 58 3 71 11 5 38 10 60 10 57 0 70 8 77 48 9 51 21 62 63 62 21 0 46 7 57 15 28 21 50 18 72 -10 14 -18 30 -25 53 -25 19 -1 47 -7 64 -14 21 -9 41 -10 71 -3 36 9 46 6 88 -18 l48 -28 25 32 c21 27 30 31 53 26 19 -4 38 0 61 14 42 26 44 26 67 1 18 -19 20 -19 65 -4 62 21 66 31 17 38 -22 3 -58 9 -80 12 -22 3 -54 16 -72 28 -29 19 -33 28 -36 74 -3 50 -1 55 37 93 34 33 41 47 41 78 0 48 19 65 60 56 23 -5 30 -3 30 8 0 9 -13 18 -29 22 -39 8 -46 19 -59 89 -7 33 -24 84 -38 115 -31 69 -42 144 -23 157 8 5 40 9 71 9 40 0 62 5 74 17 16 16 16 18 0 43 -26 40 -15 55 44 55 l50 0 0 50 c0 54 6 49 -74 65 -42 9 -46 67 -5 78 11 3 68 -1 127 -9 59 -7 110 -14 115 -14 4 0 7 22 7 48 0 36 5 54 20 67 11 10 20 22 20 26 0 5 -21 32 -46 60 -100 113 -110 209 -28 260 65 40 120 151 149 300 17 92 36 129 64 129 11 0 34 12 51 27 32 26 32 27 26 93 l-7 66 70 67 c73 71 75 71 134 58 43 -10 51 7 17 36 -25 21 -26 53 -2 79 53 58 60 75 67 152 11 119 21 128 154 148 47 7 91 20 100 28 13 14 12 18 -10 42 -34 37 -116 74 -166 74 -32 0 -46 5 -55 20 -17 27 -25 25 -43 -10 -19 -37 -19 -79 0 -86 9 -4 15 -19 15 -35 0 -37 -53 -92 -141 -144 -84 -50 -99 -64 -99 -90 0 -33 -20 -45 -75 -45 -42 0 -59 -6 -109 -40 -72 -49 -110 -60 -210 -60 -44 0 -117 -7 -164 -16 -97 -18 -115 -12 -91 32 16 30 63 54 93 48 11 -2 25 1 31 6 6 5 54 12 106 16 l96 7 -16 44 c-15 42 -15 45 3 59 11 8 35 14 53 14 35 0 165 52 197 79 10 9 32 44 48 79 33 68 73 122 92 122 20 0 53 41 77 94 17 39 22 72 24 160 1 82 8 129 24 179 l22 68 -39 43 c-22 24 -43 58 -47 77 -4 19 -16 49 -26 67 -24 42 -24 63 1 112 30 60 27 87 -14 104 -43 18 -96 104 -96 157 0 70 -119 207 -198 228 -49 14 -66 33 -58 65 6 23 2 26 -31 33 -21 4 -89 8 -151 8 -105 0 -114 -2 -130 -22 -9 -13 -33 -25 -52 -29 -19 -3 -88 -22 -153 -41 -122 -36 -145 -37 -154 -3 -3 11 -9 20 -13 20 -12 0 -131 -124 -146 -152 -16 -31 -43 -42 -84 -33 -26 6 -31 3 -50 -34 -24 -48 -48 -66 -117 -86 -28 -8 -56 -22 -63 -30 -27 -33 -70 -10 -70 37 0 29 -8 32 -47 22 -17 -5 -23 -14 -23 -34 0 -41 -45 -79 -178 -149 -160 -84 -222 -125 -325 -220 -94 -86 -136 -116 -180 -126 -15 -4 -49 -31 -75 -61 -27 -30 -84 -76 -133 -105 -46 -28 -111 -68 -143 -87 -32 -20 -93 -48 -134 -62 -68 -23 -76 -28 -86 -60 -9 -29 -16 -35 -36 -33 -47 4 -114 -18 -148 -48 -26 -23 -40 -29 -59 -24 -14 3 -48 -1 -77 -9 -40 -12 -64 -28 -108 -75 -46 -48 -68 -63 -122 -81 -61 -20 -76 -32 -199 -153 -101 -100 -140 -146 -160 -189 -24 -50 -40 -66 -154 -151 -167 -123 -214 -151 -298 -176 -96 -29 -134 -51 -164 -97 -19 -27 -40 -43 -75 -56 -27 -9 -58 -26 -70 -37 -12 -12 -33 -21 -45 -21 -13 0 -38 -13 -57 -29 -48 -43 -92 -53 -246 -58 -130 -5 -139 -6 -160 -29 -31 -34 -63 -49 -138 -69 -79 -20 -140 -51 -140 -70 0 -23 -28 -32 -80 -27 -60 6 -142 -13 -197 -44 -34 -20 -56 -24 -118 -24 -90 0 -118 -11 -109 -44 3 -14 -2 -31 -14 -46 l-19 -24 -89 43 c-53 26 -102 43 -121 42 -29 0 -100 -31 -145 -64 -23 -15 -52 1 -56 32 -2 11 -20 33 -39 49 -31 23 -47 27 -103 28 -53 1 -76 7 -112 28 -29 17 -57 25 -78 24 -34 -3 -45 7 -55 55 -9 43 -57 67 -132 64 -52 -2 -65 1 -85 21 -36 33 -49 28 -47 -16 2 -21 -1 -43 -5 -50 -14 -23 -67 -13 -102 18 -47 41 -114 58 -282 70 -151 11 -414 0 -464 -19 -12 -5 -40 -16 -60 -25 -36 -16 -39 -15 -59 5 -21 21 -23 21 -56 5 -47 -22 -81 -20 -147 9 -67 30 -88 31 -108 8 -39 -45 -41 -61 -20 -142 28 -104 44 -195 46 -262 0 -31 7 -63 15 -72 9 -12 13 -43 12 -102 l-2 -85 44 -48 c111 -122 114 -133 72 -265 -29 -90 -31 -125 -10 -193 19 -62 19 -89 0 -118 -9 -13 -21 -63 -29 -112 -12 -83 -14 -86 -21 -51 -13 65 8 169 38 188 6 4 2 33 -12 77 -27 89 -26 101 4 206 39 133 37 143 -42 227 l-68 72 0 87 c0 51 -5 93 -12 101 -6 8 -13 43 -16 79 -7 85 -32 233 -50 290 -16 51 -10 84 23 130 31 44 57 46 145 11 l78 -32 39 21 c49 26 72 25 90 -1 l14 -22 42 22 c66 34 181 44 421 38 258 -6 347 -24 391 -78 8 -10 26 -20 40 -21 23 -3 25 0 22 35 -6 67 27 84 81 43 28 -21 42 -25 97 -23 80 2 123 -23 141 -82 10 -35 14 -38 48 -38 23 0 51 -10 76 -27 33 -23 47 -27 78 -22 21 4 57 1 80 -5 44 -12 107 -67 107 -94 0 -9 3 -15 8 -13 163 81 173 83 270 34 37 -18 77 -37 90 -40 20 -7 22 -4 22 32 0 22 6 44 13 50 6 5 56 13 109 17 61 5 102 12 109 21 18 22 120 47 197 48 58 1 73 4 78 18 7 24 68 57 138 74 77 19 115 34 124 48 4 7 20 22 36 34 26 20 40 22 151 22 147 0 214 17 247 60 16 23 30 30 54 30 20 0 44 10 62 25 17 14 44 28 62 31 22 5 39 18 55 43 25 41 109 91 185 111 63 17 112 43 210 113 170 122 197 146 226 205 21 42 63 92 166 193 128 126 142 137 200 155 51 15 71 28 116 76 44 46 68 62 116 78 34 11 71 17 84 14 17 -5 31 1 51 20 31 30 78 46 133 46 31 0 38 4 38 19 0 33 33 58 105 80 96 28 311 160 395 243 42 41 79 68 105 76 26 8 73 42 135 98 125 114 154 134 338 235 l157 86 14 46 c13 41 19 49 52 58 49 15 66 8 74 -33 10 -47 13 -50 34 -29 11 11 44 26 74 35 39 11 62 25 76 45 12 16 21 33 21 37 0 4 7 15 16 25 13 14 26 17 59 12 40 -5 44 -3 58 23 20 39 151 164 171 164 9 0 22 -11 28 -25 6 -14 16 -25 21 -25 5 0 52 13 103 30 51 16 112 33 136 36 24 4 49 15 56 25 7 10 27 23 45 29 40 12 241 5 285 -11z m440 -1418 c18 -11 6 -139 -16 -163 -19 -22 -58 -23 -66 -2 -17 43 0 113 36 152 24 24 27 25 46 13z m-423 -1873 c50 -23 45 -95 -13 -179 -43 -62 -82 -77 -103 -38 -18 34 -25 195 -9 214 15 18 88 20 125 3z m-7793 -830 c-11 -24 -23 -56 -26 -71 -9 -38 -29 -43 -69 -18 -26 16 -51 21 -101 21 -76 0 -96 -8 -138 -56 -36 -41 -50 -42 -76 -9 -12 15 -30 25 -44 25 -39 0 -87 -20 -98 -40 -6 -10 -10 -62 -10 -115 0 -76 -5 -112 -25 -171 -43 -127 -34 -149 67 -178 50 -14 60 -22 78 -55 20 -40 36 -51 73 -51 29 0 57 -28 57 -57 0 -14 -13 -38 -30 -55 -16 -16 -30 -32 -30 -35 0 -14 34 -43 50 -43 28 0 68 -38 75 -72 4 -17 22 -46 41 -65 19 -18 34 -43 34 -54 0 -12 11 -34 25 -51 14 -16 25 -42 25 -56 0 -40 33 -86 75 -106 33 -16 44 -17 79 -6 23 6 56 21 74 32 l33 20 39 -43 c38 -41 40 -43 107 -45 37 -1 127 -5 198 -9 116 -6 134 -10 168 -33 l38 -25 42 41 c37 36 49 42 86 42 37 0 48 -5 80 -39 20 -21 42 -46 49 -55 16 -21 60 -21 101 0 32 16 36 15 101 -11 42 -17 75 -25 89 -20 31 9 90 86 116 151 23 56 44 79 68 71 7 -2 3 -11 -11 -22 -12 -11 -22 -27 -22 -35 0 -24 -66 -131 -100 -162 -38 -35 -88 -37 -154 -7 -45 20 -50 20 -88 4 -22 -8 -48 -14 -57 -11 -9 2 -27 7 -41 10 -15 3 -32 19 -43 39 -18 34 -40 50 -84 62 -18 5 -33 -4 -71 -39 -27 -25 -55 -46 -62 -46 -7 0 -29 12 -48 27 -32 24 -44 27 -136 29 -56 2 -148 7 -205 11 -104 8 -104 8 -133 45 l-30 36 -49 -25 c-64 -34 -117 -33 -167 0 -41 27 -72 78 -72 119 0 14 -9 33 -20 43 -11 10 -22 33 -26 52 -4 20 -17 41 -34 53 -17 12 -31 34 -35 53 -9 40 -32 67 -57 67 -23 0 -78 52 -78 74 0 8 7 21 15 28 39 33 45 41 45 63 0 18 -7 24 -37 30 -54 10 -68 20 -87 59 -13 29 -24 36 -66 46 -69 17 -110 56 -110 107 0 21 10 58 22 83 16 36 22 72 27 175 4 72 10 136 14 143 14 22 68 44 112 45 33 2 49 -4 67 -20 l24 -23 37 39 c39 42 68 51 156 51 38 0 66 -6 89 -20 40 -24 42 -25 42 -2 0 9 11 39 25 66 14 27 25 61 26 75 1 25 2 24 11 -6 9 -26 7 -40 -10 -75z m6602 -500 c25 -35 20 -79 -13 -118 -23 -28 -32 -33 -42 -23 -14 14 -25 123 -15 148 8 23 53 18 70 -7z m-4967 -713 c16 -33 16 -35 -12 -77 -30 -45 -38 -85 -22 -105 5 -7 6 -13 2 -13 -4 0 -2 -7 5 -15 8 -10 24 -13 47 -11 23 3 36 0 40 -10 3 -7 9 -12 14 -9 10 7 44 -43 35 -52 -3 -3 -16 6 -29 20 -16 19 -36 29 -70 33 -31 4 -51 13 -57 25 -14 25 -4 128 14 148 19 20 20 35 6 61 -9 16 -15 18 -36 10 -14 -6 -30 -7 -36 -4 -17 11 21 34 54 34 22 0 32 -7 45 -35z m-119 -43 c-23 -53 -63 -68 -77 -29 -11 28 -2 45 13 25 6 -8 18 -17 27 -20 13 -5 16 -2 12 13 -6 21 14 52 28 44 4 -3 3 -18 -3 -33z m271 -285 c39 -20 77 -24 51 -6 -10 7 -11 9 -2 7 25 -7 12 -23 -20 -25 -37 -2 -74 13 -82 32 -6 16 10 14 53 -8z m2499 -649 c19 -19 14 -66 -9 -89 -18 -18 -23 -19 -42 -6 -31 20 -33 60 -6 86 26 24 40 26 57 9z"/>
 <path d="M8995 7391 c-20 -10 -20 -10 0 -10 11 -1 37 -10 58 -21 44 -24 76 -25 103 -6 15 11 16 17 7 27 -14 15 -141 22 -168 10z"/>
 <path d="M4640 1365 c0 -8 4 -15 10 -15 5 0 7 7 4 15 -4 8 -8 15 -10 15 -2 0 -4 -7 -4 -15z"/>
 <path d="M9318 5710 c-19 -26 -25 -100 -8 -100 16 0 31 50 28 89 l-3 36 -17 -25z"/>
 <path d="M8848 3873 c-15 -4 -18 -16 -18 -76 0 -130 18 -147 71 -71 36 52 51 131 28 138 -29 9 -65 13 -81 9z"/>
 <path d="M1140 3100 c0 -7 3 -10 7 -7 3 4 3 10 0 14 -4 3 -7 0 -7 -7z"/>
 <path d="M7700 2500 c0 -27 2 -50 5 -50 2 0 12 11 20 24 12 18 13 30 6 50 -16 42 -31 30 -31 -24z"/>
 <path d="M5393 843 c-15 -6 -17 -53 -3 -53 6 0 13 6 16 14 8 22 1 44 -13 39z"/>
 </g>
<g id="layer104" fill="#707070" stroke="none">
 <path d="M0 4095 l0 -4095 5120 0 5120 0 0 4095 0 4095 -5120 0 -5120 0 0 -4095z m9155 3321 c31 -9 41 -17 43 -37 6 -54 -90 -90 -145 -53 -16 10 -44 20 -63 24 -27 4 -36 11 -38 28 -7 45 109 67 203 38z m-285 -226 c71 -12 93 -29 84 -66 -5 -19 -1 -24 23 -30 98 -24 232 -179 233 -269 0 -43 40 -103 86 -129 49 -27 56 -65 23 -132 -21 -40 -22 -48 -10 -77 7 -18 21 -53 30 -79 9 -27 33 -64 54 -85 27 -26 37 -43 34 -57 -3 -12 -15 -57 -26 -101 -15 -57 -21 -103 -19 -160 4 -124 -38 -221 -113 -263 -24 -13 -46 -41 -74 -94 -22 -41 -47 -83 -55 -93 -22 -26 -158 -86 -212 -92 -27 -3 -48 -9 -48 -13 0 -4 7 -24 16 -45 8 -21 13 -43 11 -50 -4 -8 -42 -14 -114 -18 -140 -8 -174 -15 -204 -39 l-24 -20 35 7 c112 20 153 25 223 25 88 0 121 11 190 64 41 31 54 36 101 36 51 0 54 1 59 30 7 31 15 37 147 124 36 23 72 55 80 70 14 25 13 28 -2 37 -24 14 -23 70 2 119 25 48 57 61 81 31 11 -14 29 -21 51 -21 40 0 142 -47 181 -83 65 -62 19 -104 -136 -123 -83 -9 -93 -22 -105 -126 -9 -78 -13 -91 -46 -131 -39 -48 -44 -62 -22 -70 21 -8 31 -66 15 -82 -11 -11 -24 -11 -62 -3 l-48 12 -59 -59 -60 -59 6 -66 c5 -58 4 -67 -17 -89 -12 -13 -42 -32 -66 -43 -23 -10 -43 -20 -43 -22 0 -2 -9 -50 -21 -106 -28 -143 -64 -217 -138 -288 -46 -43 -61 -64 -61 -85 0 -38 32 -97 85 -157 51 -57 54 -74 23 -107 -17 -18 -21 -34 -19 -73 1 -37 -3 -52 -14 -56 -8 -3 -66 2 -130 11 -63 9 -119 14 -125 10 -20 -12 -9 -22 30 -28 60 -8 70 -21 70 -86 0 -67 -11 -81 -61 -81 -37 0 -37 0 -26 -29 9 -25 8 -33 -7 -50 -25 -28 -80 -44 -122 -37 -32 7 -34 5 -34 -21 0 -15 14 -59 30 -98 17 -38 32 -85 36 -105 11 -74 13 -77 54 -93 38 -15 41 -19 38 -49 -3 -32 -4 -33 -44 -31 l-42 2 -5 -47 c-4 -37 -12 -52 -36 -73 -57 -47 -59 -119 -4 -140 16 -6 63 -17 106 -24 43 -7 83 -17 89 -23 16 -16 -8 -41 -60 -64 -55 -25 -102 -26 -114 -4 -9 15 -12 15 -44 -5 -21 -13 -43 -19 -57 -15 -17 4 -27 -2 -42 -24 -25 -37 -52 -38 -101 -5 -32 22 -44 24 -85 19 -29 -4 -60 -2 -77 5 -15 6 -45 13 -66 15 -27 2 -44 9 -54 24 -13 20 -16 21 -49 7 -20 -8 -48 -15 -63 -15 -25 0 -29 -5 -35 -39 -9 -52 -20 -60 -94 -67 -44 -5 -61 -11 -61 -21 0 -8 9 -17 20 -20 11 -3 20 -13 20 -23 0 -9 -9 -25 -20 -35 -12 -11 -20 -31 -20 -50 0 -42 -29 -79 -53 -69 -21 8 -37 43 -37 83 l0 28 -34 -16 c-35 -16 -35 -16 -29 -68 5 -45 3 -53 -11 -53 -14 0 -13 -7 9 -47 14 -27 25 -62 25 -80 0 -37 -25 -66 -49 -58 -11 3 -25 -5 -39 -25 -13 -16 -31 -30 -42 -30 -24 0 -24 -3 -5 -66 8 -27 15 -58 15 -70 0 -25 -56 -80 -91 -89 -55 -14 -125 49 -101 90 7 13 4 27 -10 52 -11 18 -26 55 -33 81 -7 26 -14 37 -14 26 -1 -33 -20 -42 -103 -46 -56 -2 -82 -8 -95 -21 -16 -16 -15 -20 15 -81 37 -75 39 -99 12 -126 -22 -22 -41 -25 -57 -9 -8 8 -17 7 -34 -2 -13 -6 -36 -12 -51 -11 -27 1 -28 0 -13 -28 20 -39 19 -57 -5 -72 -29 -19 -25 -28 14 -28 50 0 63 -21 41 -70 -15 -32 -15 -42 -5 -55 9 -11 10 -37 5 -100 l-7 -85 46 0 c52 0 66 -16 66 -74 0 -34 -2 -35 -57 -51 -76 -22 -159 -65 -212 -109 -49 -41 -53 -42 -144 -19 l-67 17 -29 -32 c-17 -18 -34 -32 -39 -32 -5 0 -26 15 -48 34 -37 32 -39 36 -39 92 1 45 8 75 32 127 26 54 30 73 23 92 -7 18 -5 46 6 93 12 49 14 85 8 137 -4 39 -7 109 -7 158 1 84 -8 113 -21 62 -3 -13 -15 -29 -26 -35 -17 -9 -27 -4 -65 31 -53 49 -65 81 -40 109 16 18 15 19 -24 39 -22 12 -42 17 -45 13 -31 -51 -76 -150 -76 -169 0 -14 9 -32 20 -41 12 -10 29 -48 41 -91 11 -40 29 -92 39 -114 11 -22 20 -44 20 -48 0 -4 18 -45 39 -91 47 -98 57 -148 42 -206 -11 -39 -14 -42 -46 -42 -72 0 -115 45 -115 118 0 48 -1 48 -115 57 -145 11 -151 15 -175 121 -16 67 -31 104 -42 104 -14 0 -89 -169 -102 -230 -10 -45 -16 -55 -36 -60 -39 -9 -49 -60 -22 -114 28 -55 29 -124 3 -158 -36 -45 -36 -72 -2 -107 33 -34 38 -55 20 -95 -10 -22 -8 -29 20 -61 17 -20 31 -40 31 -45 0 -25 -15 -40 -41 -40 -23 0 -30 -5 -35 -28 -12 -48 -22 -53 -103 -51 -42 1 -95 -2 -118 -6 -39 -7 -43 -6 -43 12 0 11 34 55 75 98 83 87 88 101 55 174 -11 24 -20 52 -20 63 0 17 -3 18 -15 8 -25 -20 -42 -4 -59 54 -17 58 -24 63 -57 45 -16 -8 -25 -7 -41 8 -18 16 -20 27 -16 98 3 44 3 86 1 93 -3 6 -19 12 -36 12 -18 0 -50 9 -71 21 -36 19 -40 19 -71 5 -91 -43 -188 4 -219 107 -8 27 -44 20 -81 -17 -31 -31 -38 -34 -66 -26 -39 12 -48 7 -42 -23 11 -56 -80 -177 -145 -194 l-23 -5 21 -23 c25 -27 20 -60 -11 -70 -31 -10 -51 13 -47 53 3 26 -1 40 -19 58 -13 13 -23 30 -23 38 0 19 -39 40 -113 59 -67 18 -107 41 -107 62 0 19 -24 19 -39 1 -7 -8 -27 -21 -45 -30 -29 -13 -38 -14 -87 -1 -43 12 -66 13 -111 4 -88 -17 -153 12 -203 91 -32 50 -102 79 -143 60 -15 -7 -51 -15 -81 -19 -39 -4 -57 -11 -65 -26 -30 -54 -51 -77 -107 -114 -34 -23 -70 -41 -81 -41 -11 0 -46 16 -78 35 -32 19 -71 35 -86 35 -16 1 -40 7 -54 15 -34 19 -70 19 -70 0 0 -46 -87 -115 -145 -115 -50 0 -68 12 -90 60 -12 27 -26 42 -42 45 -68 14 -79 17 -90 27 -20 17 -16 108 7 150 24 45 14 92 -17 81 -34 -12 -58 -33 -73 -66 -19 -39 -58 -50 -67 -17 -10 38 -44 21 -60 -30 -15 -52 -71 -132 -109 -157 -34 -22 -80 -20 -140 6 -47 21 -50 21 -86 5 -25 -11 -48 -14 -73 -10 -36 7 -44 13 -88 69 -16 20 -34 30 -63 34 -39 5 -43 3 -74 -36 -39 -48 -60 -51 -108 -15 -31 24 -44 27 -126 29 -50 1 -142 5 -204 10 l-114 8 -30 38 -30 38 -37 -23 c-20 -13 -55 -27 -76 -30 -78 -13 -175 65 -175 140 0 18 -6 37 -14 41 -16 10 -36 46 -36 68 0 9 -16 31 -35 49 -19 19 -35 42 -35 52 0 28 -28 64 -50 64 -26 0 -80 48 -80 71 0 10 14 31 30 46 40 35 37 65 -7 74 -46 9 -78 33 -92 67 -10 24 -23 32 -71 45 -99 28 -122 83 -79 189 17 40 23 84 28 180 7 150 14 161 104 180 56 12 57 12 86 -16 l29 -28 26 35 c33 44 70 57 155 57 48 0 75 -5 99 -20 42 -26 42 -25 42 9 0 16 7 34 15 41 20 16 35 74 45 177 6 53 16 97 29 118 19 33 19 34 0 95 -25 81 -24 113 6 207 41 128 39 133 -73 256 l-45 49 5 73 c4 57 1 82 -13 112 -12 26 -16 51 -12 80 3 24 1 48 -4 55 -6 7 -14 44 -18 83 -4 38 -16 98 -27 133 -22 72 -17 98 30 153 30 36 55 37 132 4 67 -28 94 -30 130 -10 36 20 67 18 83 -6 14 -19 17 -20 40 -5 49 33 154 46 364 46 285 0 405 -20 464 -76 37 -36 65 -29 61 14 -7 63 31 79 89 36 28 -21 41 -24 72 -19 79 12 150 -29 163 -95 5 -22 11 -25 43 -25 23 0 49 -10 70 -25 27 -19 48 -24 100 -25 41 0 78 -7 98 -18 35 -18 73 -62 73 -83 0 -19 4 -18 48 9 99 60 139 62 247 7 43 -22 81 -37 86 -34 5 2 8 20 7 39 -1 19 1 38 5 41 11 12 84 24 145 24 48 0 70 5 89 19 32 26 163 55 218 49 36 -4 44 -2 48 12 7 28 51 51 155 81 53 16 102 36 109 45 33 45 63 54 184 54 137 0 210 18 250 61 18 19 37 29 56 29 19 0 38 9 53 25 14 15 40 28 63 32 30 4 43 14 61 42 32 50 88 85 170 107 79 21 142 57 302 174 103 75 119 92 146 145 23 44 67 96 168 196 126 126 143 138 196 154 45 13 70 29 119 76 67 64 156 105 205 94 19 -4 32 1 49 19 28 30 73 46 130 49 35 1 41 5 41 23 0 29 26 50 80 64 103 28 329 164 420 254 42 41 77 66 97 71 20 4 69 39 131 93 134 120 176 148 337 237 153 84 185 108 185 140 0 34 22 54 67 61 44 7 47 4 66 -57 5 -15 11 -14 53 7 26 13 55 24 63 24 28 0 58 28 80 76 l22 46 47 -6 c44 -6 49 -4 64 22 20 34 131 144 158 156 22 10 50 -7 50 -30 0 -19 -2 -19 130 21 63 19 125 35 136 35 12 0 28 7 35 17 35 42 149 55 289 33z m493 -1499 c-2 -80 -18 -111 -58 -111 -26 0 -35 17 -35 65 0 63 43 130 78 123 14 -3 17 -15 15 -77z m-413 -1811 c39 -39 16 -131 -53 -203 -30 -33 -39 -37 -56 -28 -11 6 -25 28 -31 49 -14 51 -13 175 2 190 21 21 115 15 138 -8z m-1198 -1337 c17 -28 17 -35 5 -65 -8 -18 -24 -42 -37 -53 -21 -19 -22 -19 -36 0 -15 20 -20 136 -7 149 17 16 58 0 75 -31z m-2324 -1675 c28 -28 3 -108 -34 -108 -20 0 -44 29 -44 53 0 50 49 84 78 55z"/>
 <path d="M9005 7391 c-17 -7 -15 -10 17 -16 21 -4 42 -13 49 -21 15 -18 60 -18 85 0 14 11 16 17 7 26 -14 15 -131 23 -158 11z"/>
 <path d="M8643 7164 c-12 -3 -28 -16 -37 -28 -11 -17 -27 -25 -63 -29 -26 -3 -92 -20 -147 -37 -107 -34 -142 -34 -148 3 -3 20 -12 14 -73 -49 -39 -38 -80 -83 -93 -98 -20 -25 -28 -28 -63 -23 -38 5 -40 3 -58 -31 -24 -48 -45 -65 -106 -87 -27 -10 -61 -26 -74 -37 -21 -16 -27 -17 -45 -5 -12 8 -22 27 -24 46 -3 33 -18 39 -53 21 -11 -6 -19 -21 -19 -36 0 -38 -43 -73 -168 -138 -155 -81 -248 -144 -349 -238 -58 -54 -108 -90 -149 -108 -42 -19 -73 -42 -100 -75 -21 -26 -61 -60 -89 -77 -75 -44 -87 -51 -120 -74 -48 -34 -135 -75 -205 -98 -55 -18 -66 -25 -68 -46 -6 -38 -19 -48 -65 -48 -52 0 -90 -15 -130 -48 -22 -18 -37 -24 -55 -19 -47 12 -122 -24 -182 -85 -45 -46 -67 -61 -121 -79 -61 -20 -75 -31 -202 -157 -99 -99 -143 -150 -161 -189 -21 -43 -42 -66 -108 -117 -134 -103 -265 -186 -311 -198 -109 -28 -179 -68 -197 -114 -8 -23 -38 -41 -82 -50 -15 -4 -39 -17 -54 -31 -15 -14 -39 -25 -55 -25 -17 0 -32 -7 -38 -19 -6 -10 -34 -29 -63 -42 -45 -20 -73 -24 -190 -27 l-137 -4 -41 -35 c-30 -26 -63 -41 -123 -57 -99 -26 -144 -51 -152 -83 -5 -23 -8 -24 -63 -17 -68 7 -171 -15 -214 -46 -20 -15 -43 -20 -91 -20 -36 0 -79 -3 -96 -6 -27 -6 -31 -11 -31 -40 0 -32 -21 -64 -42 -64 -6 0 -47 18 -91 41 -97 49 -139 49 -218 0 -67 -41 -82 -40 -101 8 -21 53 -64 75 -148 76 -52 0 -73 6 -99 24 -21 15 -49 25 -74 25 -41 1 -46 5 -67 63 -16 44 -65 66 -127 58 -41 -6 -53 -3 -86 19 -21 14 -41 26 -44 26 -3 0 -3 -16 0 -36 7 -44 -21 -79 -56 -68 -28 9 -67 34 -67 44 0 13 -51 30 -137 45 -101 18 -443 20 -542 5 -35 -6 -81 -20 -102 -31 -40 -20 -72 -15 -82 13 -3 10 -12 9 -41 -4 -50 -24 -79 -23 -159 9 -78 31 -90 28 -120 -30 -19 -36 -18 -37 2 -99 11 -35 23 -93 27 -131 3 -37 10 -70 15 -73 5 -3 9 -32 8 -64 -1 -38 3 -65 12 -76 10 -12 13 -41 11 -101 l-2 -84 48 -52 c105 -113 108 -123 67 -263 -30 -105 -31 -115 -3 -208 l21 -73 -22 -29 c-16 -22 -26 -59 -37 -140 -9 -66 -23 -122 -35 -142 -10 -18 -19 -44 -19 -56 0 -47 -49 -57 -92 -19 -13 12 -36 14 -92 11 -73 -3 -77 -5 -119 -46 -23 -23 -47 -42 -52 -42 -5 0 -21 12 -36 26 -24 22 -33 25 -67 19 -73 -12 -76 -18 -84 -162 -4 -96 -12 -142 -28 -182 -38 -97 -27 -118 83 -157 38 -14 52 -25 68 -55 15 -31 26 -39 56 -45 78 -14 95 -65 41 -121 -37 -38 -31 -52 36 -77 41 -16 66 -46 66 -81 0 -8 16 -30 35 -49 19 -20 35 -44 35 -56 0 -11 9 -29 21 -41 11 -11 23 -37 26 -57 9 -58 30 -90 73 -112 35 -18 46 -19 83 -9 23 6 54 20 68 30 37 26 44 24 79 -20 l31 -38 107 -8 c59 -5 141 -10 182 -11 115 -2 115 -2 155 -30 l38 -25 43 42 c36 35 49 42 79 41 47 -2 99 -34 115 -71 15 -37 63 -49 106 -26 39 20 66 19 107 -5 19 -11 52 -21 72 -22 54 -2 90 41 159 192 15 32 52 37 79 12 l22 -20 24 38 c27 43 85 74 112 59 9 -4 22 -22 29 -38 11 -27 10 -35 -9 -66 -21 -36 -31 -111 -17 -133 4 -7 25 -12 46 -12 30 0 43 -6 63 -30 14 -16 28 -39 32 -49 3 -11 18 -24 33 -29 52 -18 142 41 142 93 0 9 15 22 32 30 29 11 37 11 68 -5 19 -9 51 -20 70 -23 20 -3 58 -19 86 -37 39 -24 57 -30 78 -24 35 8 134 99 142 129 7 27 42 45 89 45 19 0 50 7 69 16 62 30 145 -3 191 -75 14 -24 43 -50 67 -62 39 -20 47 -21 108 -10 53 10 75 10 118 -2 52 -14 53 -14 93 15 45 32 76 33 93 3 15 -28 21 -31 112 -59 82 -26 106 -43 118 -83 5 -17 15 -23 34 -23 63 0 144 93 147 167 3 52 17 65 62 57 26 -5 39 0 71 26 30 24 47 31 73 28 30 -3 36 -8 47 -43 7 -22 23 -50 36 -63 25 -26 98 -41 118 -24 29 23 77 24 112 3 18 -12 49 -21 69 -21 55 0 67 -25 60 -126 -6 -88 -3 -95 38 -74 26 14 65 -25 75 -74 6 -35 7 -36 25 -20 29 26 49 11 49 -36 0 -22 9 -59 21 -82 35 -69 23 -108 -57 -189 -68 -69 -76 -84 -28 -53 20 14 30 15 50 5 14 -6 42 -11 63 -11 35 0 39 3 50 39 11 38 33 57 52 45 20 -12 7 24 -16 46 -25 24 -33 64 -15 75 19 12 10 43 -17 63 -24 17 -28 27 -27 65 1 30 8 54 22 72 29 36 29 97 1 142 -16 26 -20 44 -16 74 5 42 30 79 52 79 13 0 25 30 25 62 0 30 99 225 117 232 29 12 60 -35 78 -118 9 -41 24 -81 33 -89 11 -9 52 -17 117 -21 126 -9 145 -20 145 -82 0 -52 33 -94 74 -94 21 0 26 6 32 34 9 48 -1 84 -56 200 -26 55 -62 146 -80 201 -19 62 -39 106 -52 116 -18 14 -20 23 -15 64 7 49 63 161 93 186 14 11 24 9 69 -15 62 -32 72 -49 45 -76 -11 -11 -20 -22 -20 -25 0 -9 62 -75 71 -75 5 0 15 16 23 35 15 36 47 47 63 23 4 -7 8 -56 9 -108 1 -52 4 -126 8 -165 5 -48 3 -91 -7 -135 -9 -44 -11 -74 -4 -93 7 -22 3 -40 -21 -91 -51 -110 -53 -172 -6 -203 24 -15 26 -15 54 12 31 30 51 31 141 5 46 -13 46 -13 95 24 56 43 175 103 223 112 27 6 32 11 29 33 -3 23 -8 26 -43 29 -63 5 -68 15 -61 106 5 64 4 82 -9 96 -14 16 -14 21 4 64 l20 46 -25 0 c-57 0 -86 46 -46 71 18 12 18 14 0 71 -10 33 -18 70 -18 82 0 21 17 46 31 46 16 0 39 -33 39 -56 0 -27 8 -29 45 -12 19 8 31 8 50 0 22 -10 25 -9 31 14 4 15 1 31 -8 42 -24 28 -49 101 -43 125 9 35 43 50 128 55 63 4 77 7 77 21 0 34 56 59 64 29 2 -7 8 -35 15 -61 6 -26 20 -61 32 -76 16 -22 18 -32 10 -54 -19 -48 42 -83 87 -50 44 33 47 46 27 113 -20 67 -15 90 23 100 11 3 30 18 42 33 14 18 30 27 44 25 33 -5 32 39 -4 105 -34 65 -38 87 -12 87 13 0 17 9 17 42 0 36 4 44 27 56 16 7 33 22 38 33 12 21 35 25 46 8 3 -6 9 -34 13 -62 7 -57 31 -78 31 -27 0 17 7 44 15 60 9 18 11 31 5 35 -5 3 -15 15 -20 25 -17 32 18 58 89 66 l60 6 7 42 c7 46 17 56 55 56 15 0 40 7 55 15 41 21 69 19 86 -7 11 -16 27 -24 52 -26 21 -1 47 -7 58 -13 12 -6 39 -8 68 -4 42 6 55 3 95 -21 l47 -27 25 32 c21 26 31 31 50 26 16 -4 37 1 60 15 42 25 48 25 70 1 17 -18 21 -18 63 -4 68 23 68 30 -2 38 -67 7 -136 32 -154 56 -33 42 -20 115 27 152 23 18 32 34 36 68 8 60 19 72 60 64 44 -8 43 11 -2 29 -36 16 -55 47 -55 92 0 14 -16 63 -35 110 -54 130 -44 184 29 170 33 -6 106 14 106 29 0 3 -7 17 -16 30 -26 39 -12 55 46 55 l50 0 0 49 c0 48 0 49 -37 56 -55 10 -73 23 -73 51 0 46 61 50 247 17 l33 -5 -2 45 c-2 36 3 52 20 70 12 13 22 26 22 30 0 3 -21 30 -46 59 -89 100 -109 199 -48 243 88 63 136 155 167 316 l22 111 50 23 c71 31 78 43 70 115 l-7 61 53 57 c71 76 84 83 142 76 51 -6 59 2 27 31 -29 27 -24 60 16 105 32 35 37 48 48 130 16 117 25 127 139 145 85 14 127 28 127 44 0 30 -132 101 -189 101 -30 0 -44 6 -55 22 -18 25 -18 25 -40 -19 -20 -40 -21 -69 -1 -77 9 -3 15 -18 15 -36 0 -37 -56 -103 -114 -132 -80 -41 -126 -78 -126 -102 0 -35 -25 -50 -77 -47 -41 2 -55 -4 -115 -45 l-69 -48 -132 -7 c-73 -4 -152 -12 -177 -18 -74 -17 -90 -14 -90 12 0 53 78 84 236 94 l102 6 -14 33 c-28 68 -23 76 67 87 20 3 71 23 114 44 78 37 80 39 116 111 39 77 74 122 95 122 21 0 61 57 79 111 11 32 18 90 20 157 1 80 8 123 24 171 l22 64 -39 41 c-26 26 -45 58 -52 86 -7 24 -18 53 -26 64 -19 28 -18 60 6 106 29 58 26 84 -12 101 -46 20 -86 83 -97 150 -6 34 -21 73 -41 102 -39 58 -112 123 -148 132 -48 11 -72 33 -72 64 0 18 -6 31 -17 36 -22 8 -230 15 -260 9z"/>
 <path d="M6891 2124 c0 -11 3 -14 6 -6 3 7 2 16 -1 19 -3 4 -6 -2 -5 -13z"/>
 <path d="M4641 1364 c0 -11 3 -14 6 -6 3 7 2 16 -1 19 -3 4 -6 -2 -5 -13z"/>
 <path d="M9317 5710 c-20 -29 -24 -104 -5 -98 13 5 30 80 25 108 -2 11 -7 8 -20 -10z"/>
 <path d="M8830 3806 c0 -80 9 -126 25 -126 11 0 42 41 73 97 15 29 15 66 0 81 -7 7 -31 12 -55 12 l-43 0 0 -64z"/>
 <path d="M7700 2500 c0 -27 2 -50 5 -50 2 0 11 12 19 27 10 20 11 33 3 50 -17 37 -27 27 -27 -27z"/>
 <path d="M5391 837 c-16 -20 -6 -56 10 -40 6 6 9 21 7 33 -3 21 -4 22 -17 7z"/>
 </g>
<g id="layer105" fill="#909090" stroke="none">
 <path d="M0 4095 l0 -4095 5120 0 5120 0 0 4095 0 4095 -5120 0 -5120 0 0 -4095z m9179 3315 c29 -15 27 -54 -5 -79 -31 -24 -90 -28 -120 -7 -11 8 -37 18 -58 21 -58 11 -61 60 -5 77 33 10 162 2 188 -12z m-295 -221 c60 -13 82 -34 71 -69 -5 -15 1 -21 32 -30 48 -13 111 -61 163 -123 39 -48 53 -82 65 -160 7 -43 56 -104 91 -113 47 -12 50 -61 9 -146 -18 -37 -18 -39 3 -81 12 -24 25 -58 28 -75 4 -18 23 -45 46 -67 45 -40 45 -35 8 -165 -16 -57 -20 -92 -16 -143 9 -117 -38 -232 -111 -273 -28 -15 -48 -39 -78 -95 -22 -42 -45 -83 -50 -92 -17 -26 -180 -97 -225 -97 -22 0 -40 -2 -40 -5 0 -2 7 -23 16 -45 25 -62 19 -66 -101 -73 -107 -7 -209 -29 -221 -49 -4 -6 1 -8 12 -5 52 16 146 27 219 27 99 0 134 11 201 61 45 35 57 39 107 39 53 0 56 1 59 27 3 28 71 88 135 119 39 19 103 80 103 98 0 8 -7 16 -15 20 -8 3 -15 13 -16 23 -1 10 -6 -9 -13 -42 -9 -51 -15 -61 -37 -69 -45 -16 -59 -3 -59 55 0 84 63 160 96 115 10 -15 13 -13 23 15 23 66 68 89 93 49 9 -14 24 -20 51 -20 42 0 146 -48 183 -85 32 -32 31 -68 -2 -89 -14 -10 -66 -23 -116 -31 -50 -7 -95 -18 -101 -24 -5 -5 -16 -54 -23 -108 -13 -91 -16 -100 -51 -135 l-37 -38 22 -23 c26 -28 30 -82 6 -91 -9 -3 -19 -4 -24 -1 -5 3 -27 6 -49 7 -38 1 -46 -4 -96 -54 l-54 -56 6 -69 c5 -61 3 -70 -17 -88 -12 -11 -41 -27 -63 -36 l-42 -16 -23 -109 c-31 -146 -68 -224 -142 -296 -43 -41 -60 -65 -60 -83 0 -36 30 -90 84 -153 50 -58 57 -90 26 -110 -16 -10 -20 -23 -20 -67 0 -39 -4 -57 -14 -61 -8 -3 -65 1 -128 9 -63 8 -120 11 -128 7 -17 -10 -12 -12 45 -25 47 -10 55 -23 55 -85 0 -67 -14 -85 -66 -82 -33 3 -34 1 -24 -19 30 -54 -34 -107 -116 -95 -42 5 -44 4 -44 -19 0 -14 16 -63 35 -110 20 -46 38 -105 41 -129 6 -39 10 -46 35 -51 36 -8 51 -27 47 -62 -3 -26 -6 -28 -44 -27 l-42 1 -5 -45 c-4 -35 -13 -52 -41 -78 -30 -27 -36 -40 -36 -73 0 -35 4 -43 31 -57 18 -9 68 -21 112 -27 128 -19 128 -62 -1 -102 -49 -16 -54 -16 -79 0 -25 17 -28 17 -55 0 -16 -9 -39 -14 -51 -11 -17 4 -27 -2 -42 -24 -25 -37 -53 -38 -105 -4 -34 23 -43 25 -73 15 -26 -9 -42 -8 -76 4 -24 8 -59 15 -77 15 -25 0 -38 7 -50 25 -15 24 -17 24 -51 10 -20 -8 -48 -15 -63 -15 -24 0 -28 -5 -34 -39 -8 -50 -27 -65 -94 -71 -56 -5 -80 -24 -45 -37 31 -11 33 -26 7 -56 -13 -16 -24 -39 -24 -52 0 -40 -18 -75 -39 -75 -27 0 -51 37 -51 81 l0 36 -33 -16 c-32 -16 -33 -17 -29 -68 4 -44 2 -53 -11 -53 -14 0 -12 -8 8 -46 39 -73 29 -148 -18 -143 -14 2 -33 -8 -52 -27 -17 -17 -36 -33 -44 -35 -11 -4 -10 -12 3 -43 27 -65 21 -99 -24 -140 -48 -43 -80 -46 -127 -10 -31 24 -34 30 -28 61 4 24 1 42 -10 59 -8 13 -22 48 -30 76 -7 29 -14 43 -14 32 -1 -33 -25 -46 -83 -45 -123 2 -142 -19 -98 -103 17 -30 30 -67 30 -81 0 -42 -57 -84 -75 -56 -3 6 -22 4 -46 -4 -23 -8 -45 -12 -50 -9 -12 7 -11 -13 2 -38 14 -25 3 -68 -17 -68 -8 0 -12 -5 -9 -10 3 -6 19 -10 34 -10 45 0 57 -23 38 -72 -13 -31 -14 -45 -5 -55 7 -9 9 -41 4 -98 l-6 -85 45 0 c51 0 65 -16 65 -73 0 -34 -1 -35 -70 -57 -61 -19 -134 -60 -225 -124 -29 -21 -25 -21 -162 11 -16 4 -30 -4 -53 -28 l-30 -34 -35 19 c-72 39 -83 121 -30 235 25 56 31 79 24 93 -7 12 -4 44 7 100 12 59 14 96 8 137 -4 31 -8 98 -8 148 1 51 -2 93 -5 93 -3 0 -13 -15 -21 -32 -8 -18 -20 -34 -27 -36 -17 -5 -102 76 -109 105 -4 15 0 30 11 43 16 18 15 19 -22 39 l-40 20 -35 -62 c-45 -79 -56 -132 -30 -146 10 -5 24 -29 31 -53 36 -120 77 -226 126 -329 37 -78 44 -131 24 -188 -9 -26 -16 -31 -44 -31 -76 0 -115 41 -115 119 0 48 1 47 -139 55 -105 5 -125 16 -141 75 -5 20 -16 62 -25 94 -9 31 -20 57 -26 57 -15 0 -90 -167 -103 -230 -9 -44 -15 -56 -32 -58 -22 -3 -44 -39 -44 -70 0 -9 9 -30 20 -47 28 -42 27 -123 -1 -159 -29 -37 -28 -81 4 -110 29 -27 35 -64 15 -95 -10 -16 -7 -25 21 -56 41 -48 39 -79 -6 -83 -23 -2 -33 -8 -33 -20 0 -10 -7 -28 -16 -40 -15 -21 -23 -23 -93 -21 -42 1 -95 -2 -118 -6 -40 -7 -43 -6 -43 15 0 14 27 50 75 99 44 45 75 86 75 98 0 11 -12 47 -27 79 -21 43 -33 59 -48 59 -16 0 -24 13 -38 58 -19 60 -22 62 -68 43 -10 -4 -23 0 -34 10 -14 14 -16 33 -15 98 3 110 5 106 -35 106 -20 0 -53 9 -75 20 -35 18 -41 18 -67 5 -36 -19 -91 -19 -137 0 -37 16 -76 65 -76 98 0 42 -73 28 -90 -18 -10 -27 -32 -31 -74 -15 -25 9 -26 8 -26 -23 0 -17 -9 -50 -19 -73 -20 -44 -92 -111 -129 -121 l-23 -5 22 -24 c19 -20 21 -27 11 -49 -24 -52 -79 -20 -69 39 4 27 2 36 -10 38 -9 2 -21 19 -28 38 -11 33 -17 37 -104 65 -70 23 -99 38 -116 59 l-23 29 -37 -31 c-41 -37 -39 -37 -117 -16 -46 11 -68 13 -91 5 -82 -29 -164 3 -220 86 -19 29 -41 47 -72 58 -41 16 -47 16 -85 1 -22 -9 -55 -16 -73 -16 -40 0 -53 -9 -66 -42 -13 -34 -121 -124 -160 -133 -37 -8 -66 1 -108 32 -17 13 -48 27 -70 30 -21 3 -50 12 -65 19 -42 21 -55 17 -75 -23 -40 -82 -157 -122 -206 -70 -12 13 -30 38 -39 55 -14 27 -23 32 -54 32 -57 0 -74 22 -74 95 0 48 5 68 21 88 16 21 18 31 9 47 -6 11 -16 20 -23 20 -23 0 -56 -30 -73 -65 -19 -41 -54 -47 -76 -13 -13 20 -17 21 -32 9 -9 -7 -16 -21 -16 -31 0 -22 -69 -127 -104 -160 -35 -32 -93 -32 -155 0 -42 21 -46 21 -78 6 -70 -33 -104 -21 -166 57 -16 20 -34 30 -63 34 -39 5 -43 3 -74 -36 -38 -47 -64 -52 -105 -19 -29 23 -109 32 -355 43 -85 3 -85 3 -120 43 l-35 39 -33 -22 c-41 -30 -121 -41 -153 -23 -58 32 -99 85 -99 126 0 11 -9 30 -19 44 -11 13 -23 38 -27 54 -3 16 -19 43 -35 59 -15 17 -34 48 -41 70 -10 32 -20 42 -47 51 -45 15 -81 47 -81 74 0 12 14 34 31 49 42 39 36 61 -21 75 -34 9 -50 20 -70 49 -20 29 -40 44 -80 58 -29 10 -64 29 -77 41 -21 20 -24 30 -20 73 2 27 14 76 25 107 18 46 22 79 22 166 0 106 1 109 28 135 22 21 42 28 88 33 57 6 62 5 82 -20 l20 -27 27 35 c31 41 66 54 156 58 49 2 73 -2 92 -15 34 -22 47 -22 47 2 0 11 9 35 20 54 12 20 24 68 31 118 11 94 25 153 42 180 9 14 8 29 -3 66 -21 66 -17 165 9 242 33 99 30 108 -49 201 l-71 81 2 85 c1 68 -2 89 -16 104 -14 16 -16 29 -11 69 4 28 2 52 -3 55 -5 4 -13 41 -16 84 -4 42 -16 100 -27 127 -23 58 -19 98 14 149 31 49 59 54 133 26 84 -31 108 -34 143 -16 40 20 61 20 84 -1 17 -15 21 -15 52 0 79 37 309 53 526 37 168 -13 238 -30 285 -71 45 -40 65 -38 65 5 0 19 3 41 6 50 9 24 52 19 86 -9 26 -22 37 -25 74 -19 76 11 144 -27 159 -88 6 -23 13 -28 40 -28 19 0 48 -11 71 -27 32 -22 49 -27 92 -25 29 1 70 -5 92 -14 42 -17 90 -65 90 -90 0 -19 4 -18 51 13 22 14 63 32 92 40 52 13 52 13 135 -27 46 -22 89 -40 96 -40 8 0 11 12 8 33 -6 48 14 59 126 66 63 5 106 13 122 24 37 24 138 48 195 46 44 -2 54 1 80 28 30 29 128 73 165 73 34 0 69 19 99 52 l29 33 149 6 c160 5 229 24 252 68 8 15 21 21 45 21 21 0 40 8 55 24 12 13 42 29 67 35 33 8 47 19 59 41 22 43 83 83 156 104 72 20 145 55 204 98 226 165 228 167 256 227 15 30 71 95 163 186 134 134 163 155 229 170 16 3 61 36 100 73 75 71 140 101 189 89 15 -4 33 2 57 21 39 29 100 52 144 52 20 0 27 5 27 18 0 28 30 50 91 68 67 20 139 56 201 100 26 18 68 44 95 58 26 13 73 50 103 81 33 35 76 67 109 82 32 14 90 57 143 106 105 97 194 157 340 232 131 68 168 97 168 135 0 36 20 51 75 57 42 5 44 4 50 -23 13 -56 13 -56 37 -40 13 9 43 22 68 31 54 19 76 38 102 89 19 38 21 38 63 33 l43 -6 55 67 c88 109 160 147 174 92 6 -23 11 -24 50 -9 45 18 196 59 217 59 10 0 34 14 53 30 33 29 37 30 132 30 54 0 123 -5 155 -11z m58 -3301 c28 -14 37 -41 28 -82 -11 -49 -57 -123 -93 -150 l-27 -20 -23 22 c-20 21 -22 32 -22 129 0 106 0 107 25 114 28 8 86 1 112 -13z m-1200 -1325 c30 -35 31 -61 3 -108 -29 -50 -59 -59 -69 -22 -8 30 -8 132 1 140 12 13 50 7 65 -10z m-2314 -1695 c17 -17 15 -68 -5 -90 -32 -36 -73 -16 -73 36 0 51 48 84 78 54z"/>
 <path d="M9010 7391 c-24 -7 -23 -8 11 -14 21 -4 42 -14 49 -22 7 -8 22 -15 34 -15 27 0 71 30 59 40 -12 12 -124 20 -153 11z"/>
 <path d="M8634 7152 c-18 -11 -35 -25 -38 -31 -4 -6 -20 -11 -35 -11 -16 0 -71 -14 -122 -30 -52 -17 -113 -33 -137 -37 -38 -5 -44 -3 -49 16 -3 11 -9 21 -15 21 -10 0 -108 -96 -150 -148 -24 -29 -33 -33 -68 -31 -36 3 -42 0 -56 -26 -25 -49 -53 -72 -106 -90 -28 -9 -63 -26 -78 -37 -37 -27 -56 -18 -70 31 -6 23 -13 41 -15 41 -26 0 -55 -23 -55 -43 0 -43 -37 -74 -173 -145 -164 -87 -226 -129 -329 -223 -93 -85 -155 -129 -181 -129 -10 0 -44 -27 -75 -60 -84 -87 -330 -233 -439 -260 -38 -9 -44 -15 -53 -49 l-10 -39 -63 -4 c-54 -3 -70 -9 -106 -37 -33 -26 -48 -32 -70 -28 -47 10 -131 -27 -170 -74 -41 -49 -90 -81 -151 -98 -37 -10 -68 -35 -173 -139 -84 -83 -140 -148 -162 -188 -42 -73 -51 -82 -190 -183 -120 -87 -218 -140 -308 -166 -57 -16 -127 -65 -127 -90 0 -16 -43 -45 -68 -45 -11 0 -36 -13 -57 -30 -22 -18 -50 -30 -67 -30 -17 0 -31 -6 -35 -15 -7 -19 -63 -49 -122 -65 -24 -6 -94 -11 -155 -11 l-111 1 -49 -40 c-27 -22 -60 -43 -75 -46 -145 -34 -186 -53 -196 -92 -5 -22 -9 -23 -55 -17 -58 8 -189 -18 -223 -45 -16 -13 -50 -20 -120 -25 l-97 -7 0 -30 c0 -40 -17 -68 -40 -68 -10 0 -53 18 -95 40 -42 22 -89 40 -106 40 -31 0 -120 -40 -152 -68 -24 -21 -46 -7 -61 38 -16 48 -82 82 -145 74 -38 -5 -55 -1 -96 22 -29 16 -67 28 -90 28 -36 1 -40 3 -46 35 -4 18 -19 45 -33 60 -24 23 -33 26 -93 23 -57 -2 -70 1 -99 23 -18 14 -35 25 -38 25 -4 0 -3 -18 0 -39 5 -34 3 -41 -19 -55 -29 -20 -67 -9 -107 29 -45 43 -125 57 -361 62 -238 6 -356 -5 -416 -37 -48 -25 -58 -25 -77 1 l-15 22 -50 -22 c-53 -22 -53 -22 -148 16 -34 14 -69 23 -77 20 -21 -8 -50 -67 -48 -98 1 -15 8 -42 16 -60 8 -19 17 -69 21 -112 4 -42 11 -80 16 -83 5 -3 9 -32 9 -65 0 -38 6 -69 16 -84 13 -19 14 -39 9 -97 l-7 -73 64 -70 c86 -93 93 -115 67 -208 -45 -160 -44 -159 -21 -231 27 -81 27 -90 2 -124 -13 -18 -24 -56 -30 -112 -12 -96 -27 -159 -42 -178 -6 -6 -13 -26 -17 -44 -10 -49 -33 -57 -84 -29 -37 20 -54 23 -111 19 -66 -4 -70 -6 -105 -46 -42 -49 -68 -53 -100 -16 -18 21 -28 24 -54 19 -79 -15 -87 -31 -87 -172 0 -64 -6 -102 -27 -163 -37 -109 -30 -128 56 -155 51 -17 68 -27 89 -59 21 -30 39 -43 77 -55 47 -15 50 -18 53 -52 2 -27 -3 -44 -23 -68 -34 -39 -27 -57 24 -71 40 -11 71 -47 71 -84 0 -8 16 -29 35 -47 19 -19 35 -43 35 -55 0 -11 11 -33 25 -48 16 -18 25 -39 25 -61 0 -40 40 -92 86 -111 36 -15 69 -9 133 27 l42 24 35 -40 35 -40 112 -9 c62 -5 146 -10 187 -11 103 -2 103 -2 145 -31 l38 -25 32 35 c18 20 44 40 58 45 47 18 137 -23 152 -68 9 -30 58 -43 100 -25 46 19 63 18 110 -6 22 -11 56 -20 75 -20 30 0 42 7 66 38 45 56 74 107 74 130 0 48 65 70 97 33 16 -19 17 -19 33 12 10 18 36 42 63 57 44 24 46 24 66 6 31 -28 36 -71 12 -110 -28 -44 -28 -111 -2 -126 11 -5 31 -10 44 -10 26 0 77 -44 77 -66 0 -20 29 -44 55 -44 47 0 93 31 117 79 28 54 57 65 108 41 19 -10 54 -20 77 -23 25 -3 61 -18 88 -38 45 -32 46 -32 80 -16 49 23 114 85 130 123 11 27 20 34 52 39 21 3 56 10 78 16 107 29 164 11 216 -66 15 -22 46 -51 69 -64 39 -22 45 -23 100 -11 47 10 71 10 123 0 63 -13 65 -13 100 14 42 32 77 31 92 -1 10 -24 28 -33 116 -57 66 -18 104 -46 113 -81 22 -87 193 58 179 152 -6 38 23 58 70 49 25 -5 36 -1 61 23 60 57 105 49 128 -24 23 -69 112 -108 162 -70 27 21 65 19 101 -5 18 -12 47 -20 72 -20 57 0 65 -17 56 -126 -7 -94 -8 -93 48 -69 23 9 57 -29 65 -72 7 -35 18 -43 28 -18 4 13 10 14 26 5 15 -8 20 -21 20 -48 0 -21 9 -55 20 -77 11 -22 20 -57 20 -78 0 -34 -8 -47 -67 -108 -36 -38 -61 -69 -55 -69 6 0 14 5 17 10 8 13 52 13 60 0 3 -5 24 -10 46 -10 36 0 40 3 55 39 15 39 37 57 55 45 20 -12 7 24 -16 46 -28 26 -31 46 -13 85 10 23 9 29 -21 56 -31 28 -33 33 -27 77 3 25 15 55 26 67 26 28 26 84 -1 130 -16 27 -20 46 -16 76 5 41 30 79 52 79 7 0 17 21 23 48 10 49 66 182 95 226 19 28 48 34 64 13 11 -14 38 -91 53 -155 13 -52 24 -57 145 -66 114 -8 135 -21 135 -82 0 -34 6 -51 25 -69 35 -36 71 -33 79 5 8 45 -2 85 -49 185 -43 92 -105 262 -105 287 0 8 -11 25 -25 38 -39 37 -34 86 21 186 25 47 52 84 60 84 24 0 111 -48 118 -65 3 -9 -3 -24 -14 -35 -11 -11 -20 -22 -20 -25 0 -8 62 -75 70 -75 4 0 13 14 20 30 7 17 21 35 30 40 32 17 45 -15 48 -124 9 -307 2 -426 -27 -483 -34 -67 -45 -128 -31 -163 20 -48 47 -57 79 -26 32 30 54 32 133 10 l58 -16 34 30 c42 36 184 109 231 118 34 6 41 17 29 48 -4 11 -19 16 -44 16 -48 0 -73 23 -66 59 17 93 17 123 0 142 -16 18 -17 22 -1 55 22 46 21 54 -6 54 -24 0 -67 25 -67 40 0 5 9 18 21 29 21 19 21 20 3 88 -18 73 -15 99 12 110 21 8 44 -21 44 -55 0 -21 3 -23 23 -17 12 4 38 8 59 9 20 0 39 4 43 8 4 4 -7 34 -24 67 -36 69 -39 99 -13 131 16 20 31 24 101 28 80 5 83 6 93 33 20 58 65 42 74 -27 3 -21 16 -58 30 -82 22 -36 24 -48 15 -68 -9 -20 -6 -26 16 -44 33 -26 41 -25 82 9 l34 28 -19 70 c-15 59 -16 74 -5 87 8 9 21 16 30 16 10 0 27 14 39 30 15 19 31 30 47 30 34 0 33 25 -5 98 -34 68 -38 92 -12 92 14 0 17 9 17 47 0 40 3 48 20 51 11 2 30 16 42 31 32 38 56 20 63 -47 6 -60 17 -75 25 -36 3 16 10 42 15 58 7 21 5 34 -5 50 -8 11 -15 26 -15 33 0 21 47 45 102 52 51 6 52 7 62 46 10 45 20 55 57 55 15 0 40 7 55 15 40 21 71 19 84 -5 6 -12 21 -20 36 -20 13 0 41 -7 62 -16 26 -10 51 -13 85 -9 40 6 54 3 92 -20 l45 -26 26 31 c20 24 33 30 58 28 18 -1 43 6 56 15 30 21 59 22 66 2 8 -20 52 -18 94 5 l35 19 -35 1 c-46 1 -116 17 -157 36 -64 31 -66 119 -3 179 19 19 31 42 35 70 10 60 17 68 59 63 44 -5 43 13 -2 24 -37 10 -47 26 -55 89 -4 26 -20 81 -37 123 -36 92 -40 152 -10 161 11 4 33 4 49 0 27 -6 101 16 101 30 0 3 -7 17 -16 30 -26 39 -12 55 46 55 l50 0 0 50 c0 50 0 50 -33 50 -42 0 -77 25 -77 54 0 45 20 50 138 37 59 -7 115 -15 125 -18 17 -4 18 0 12 39 -6 39 -4 47 21 71 l27 27 -50 58 c-64 73 -83 114 -83 172 0 45 3 50 55 95 85 72 119 144 150 319 16 88 24 101 63 109 15 3 40 16 56 28 27 21 28 24 21 85 l-7 64 64 71 63 71 57 -5 c54 -5 57 -4 48 13 -6 11 -15 22 -20 25 -20 12 -9 54 25 95 39 46 41 54 50 152 9 94 20 104 135 124 140 24 154 35 97 78 -51 39 -118 66 -165 66 -28 0 -45 5 -48 15 -9 23 -22 18 -39 -15 -20 -39 -19 -59 6 -79 16 -13 20 -23 14 -40 -11 -35 -74 -100 -119 -123 -84 -42 -126 -79 -126 -110 0 -35 -31 -50 -84 -41 -29 5 -43 0 -84 -30 -86 -61 -103 -67 -204 -67 -51 0 -128 -7 -171 -15 -111 -21 -119 -20 -115 12 2 14 15 35 30 46 33 25 140 46 232 47 66 0 68 1 61 23 -4 12 -9 36 -12 54 -5 34 -3 36 76 48 24 4 76 22 117 41 71 32 74 35 108 102 39 77 81 132 101 132 8 0 25 15 38 33 42 57 55 106 55 207 0 88 12 159 41 234 11 27 9 32 -28 67 -22 22 -42 52 -46 71 -4 18 -16 50 -26 70 -24 48 -24 79 1 128 26 50 26 80 1 80 -40 0 -110 105 -117 173 -7 69 -72 156 -151 202 -23 14 -48 25 -56 25 -21 0 -47 34 -47 62 0 31 -15 35 -155 44 -89 5 -104 3 -131 -14z"/>
 <path d="M9315 5697 c-19 -45 -20 -90 -3 -85 13 5 33 106 23 116 -2 3 -12 -11 -20 -31z"/>
 <path d="M6890 2120 c0 -7 3 -10 7 -7 3 4 3 10 0 14 -4 3 -7 0 -7 -7z"/>
 <path d="M8831 3808 c2 -79 11 -123 26 -123 15 0 57 62 74 109 19 51 5 70 -55 74 l-46 3 1 -63z"/>
 <path d="M7700 2504 c0 -40 2 -45 15 -34 16 13 19 38 9 64 -12 31 -24 15 -24 -30z"/>
 <path d="M5384 825 c-7 -17 4 -37 17 -30 12 8 12 45 -1 45 -6 0 -13 -7 -16 -15z"/>
 </g>
<g id="layer106" fill="#fefefe" stroke="none">
 <path d="M0 4095 l0 -4095 5120 0 5120 0 0 4095 0 4095 -5120 0 -5120 0 0 -4095z m9170 3317 c41 -20 48 -40 22 -72 -24 -30 -113 -41 -140 -17 -9 8 -34 18 -54 22 -61 11 -74 49 -25 73 37 18 157 14 197 -6z m-237 -235 c19 -13 27 -26 27 -48 0 -20 6 -31 18 -35 111 -33 232 -167 232 -257 0 -44 56 -131 87 -135 25 -4 53 -37 53 -62 0 -8 -12 -40 -26 -70 l-25 -54 26 -57 c14 -31 25 -63 25 -71 0 -8 18 -33 40 -56 22 -22 40 -48 40 -56 0 -8 -12 -58 -26 -112 -21 -80 -25 -110 -20 -165 6 -53 3 -76 -14 -121 -26 -69 -59 -119 -88 -134 -40 -20 -62 -46 -96 -118 -18 -39 -40 -76 -47 -83 -25 -20 -180 -83 -204 -83 -49 0 -56 -8 -40 -47 28 -68 26 -70 -82 -77 -113 -8 -211 -25 -219 -37 -7 -12 -2 -12 91 6 46 9 99 13 125 10 65 -9 124 8 189 54 47 33 67 40 112 43 47 3 54 6 57 25 4 26 53 71 119 109 53 30 123 92 123 109 0 5 -8 15 -19 22 -17 11 -19 8 -24 -28 -7 -53 -23 -71 -61 -67 -30 3 -31 5 -34 58 -2 45 2 62 20 90 27 40 56 50 74 26 10 -15 13 -13 23 15 23 66 68 89 93 49 9 -14 24 -20 51 -20 71 0 201 -75 207 -120 7 -48 -21 -66 -136 -86 -107 -19 -124 -31 -124 -93 -1 -80 -18 -133 -57 -173 l-37 -38 23 -24 c16 -17 22 -33 19 -57 -3 -36 -3 -36 -100 -28 -21 2 -39 -10 -83 -57 l-56 -59 11 -45 c17 -72 -4 -109 -85 -146 -39 -19 -40 -21 -56 -99 -31 -160 -73 -249 -153 -321 -31 -29 -56 -60 -56 -70 1 -41 29 -93 83 -157 31 -37 57 -74 57 -81 0 -8 -11 -23 -25 -34 -21 -17 -25 -28 -25 -75 0 -31 -4 -58 -9 -62 -5 -3 -49 1 -97 10 -100 17 -178 20 -169 5 3 -5 20 -10 37 -10 51 0 68 -24 68 -95 0 -75 -13 -90 -65 -81 l-36 7 17 -25 c15 -24 15 -28 1 -50 -20 -30 -76 -49 -128 -44 -50 5 -50 -4 -4 -123 20 -49 38 -109 41 -133 6 -38 10 -45 35 -50 38 -7 64 -47 49 -75 -8 -16 -21 -21 -50 -21 -39 0 -40 -1 -40 -35 0 -28 -9 -45 -41 -80 -33 -35 -40 -50 -37 -76 5 -48 39 -68 136 -79 94 -10 102 -14 102 -41 0 -23 -44 -52 -106 -69 -38 -11 -47 -10 -69 4 -23 15 -28 15 -47 1 -13 -8 -37 -15 -55 -15 -24 0 -37 -7 -53 -30 -12 -17 -26 -30 -32 -30 -6 0 -33 14 -59 31 -45 28 -51 30 -84 19 -29 -10 -43 -9 -76 4 -22 9 -55 16 -74 16 -26 0 -39 6 -51 25 -15 23 -17 24 -44 10 -16 -8 -38 -15 -49 -15 -36 0 -51 -12 -51 -40 0 -42 -41 -70 -101 -70 -53 0 -69 -12 -41 -32 33 -24 35 -38 8 -63 -19 -18 -26 -34 -26 -63 0 -21 -5 -43 -12 -50 -32 -32 -78 6 -78 64 0 31 0 31 -35 20 -23 -7 -33 -16 -31 -26 15 -57 15 -70 0 -85 -16 -15 -15 -19 5 -55 23 -41 28 -109 9 -128 -7 -7 -22 -12 -35 -12 -12 0 -27 -9 -33 -20 -6 -12 -22 -25 -36 -30 -28 -11 -30 -29 -8 -86 14 -38 14 -44 -1 -73 -19 -38 -69 -71 -107 -71 -14 0 -41 12 -58 27 -28 23 -31 31 -26 62 4 24 0 44 -13 65 -10 17 -22 45 -25 62 l-7 32 -24 -24 c-20 -20 -33 -23 -83 -23 -33 1 -69 -2 -81 -6 -29 -9 -27 -49 4 -100 29 -46 32 -97 8 -116 -9 -8 -37 -15 -62 -16 -96 -5 -103 -6 -96 -28 18 -55 18 -68 0 -81 -16 -12 -15 -14 11 -19 50 -11 54 -14 54 -35 0 -12 -7 -35 -16 -51 -12 -24 -13 -33 -3 -45 8 -10 10 -39 5 -100 l-6 -86 29 7 c42 9 68 -9 82 -55 15 -49 3 -67 -50 -76 -45 -8 -185 -80 -227 -116 -36 -32 -64 -34 -141 -12 l-55 16 -34 -33 -34 -33 -36 19 c-20 10 -42 32 -51 49 -22 42 -13 121 21 189 22 43 27 63 22 91 -4 20 0 69 10 117 13 67 14 91 4 141 -6 33 -11 90 -10 126 2 92 2 91 -20 54 -11 -17 -27 -32 -35 -32 -24 0 -105 86 -105 111 0 13 7 30 16 40 15 16 14 19 -15 33 -16 9 -34 16 -40 16 -14 0 -68 -93 -81 -141 -11 -38 -10 -44 8 -58 11 -9 25 -34 32 -56 30 -95 76 -217 116 -306 46 -99 55 -159 34 -213 -8 -23 -15 -26 -56 -26 -61 0 -104 40 -104 97 0 62 -7 66 -124 73 -142 9 -139 7 -186 188 -6 23 -15 42 -20 42 -16 0 -91 -170 -100 -228 -11 -62 -16 -73 -34 -66 -16 6 -31 -12 -40 -48 -4 -19 2 -41 20 -75 29 -55 27 -108 -6 -151 -29 -36 -26 -86 5 -106 27 -18 35 -72 14 -93 -9 -9 -5 -20 15 -43 28 -34 42 -73 31 -89 -3 -6 -18 -11 -34 -11 -22 0 -29 -6 -36 -32 -14 -46 -50 -61 -111 -48 -35 8 -55 8 -75 0 -32 -14 -81 -10 -86 7 -2 6 32 50 76 97 45 47 81 94 81 105 0 31 -55 138 -68 133 -21 -7 -42 18 -48 58 -9 58 -18 67 -49 50 -55 -29 -76 12 -68 133 l6 77 -36 0 c-20 0 -52 8 -71 17 -30 14 -42 14 -74 5 -99 -30 -170 -3 -205 78 -12 27 -28 50 -36 50 -7 0 -29 -16 -47 -36 -32 -33 -37 -35 -74 -29 -40 7 -40 6 -40 -25 0 -60 -80 -167 -138 -185 -22 -6 -22 -7 -5 -36 22 -37 9 -64 -33 -64 -28 0 -29 2 -28 48 0 33 -4 47 -13 47 -8 0 -20 15 -28 33 -18 44 -29 51 -100 71 -94 26 -116 37 -126 63 l-9 24 -45 -32 c-39 -28 -48 -31 -82 -23 -21 5 -83 7 -137 6 -90 -2 -103 0 -142 23 -23 14 -52 41 -64 60 -43 69 -93 89 -166 66 -16 -5 -50 -12 -76 -16 -40 -5 -49 -10 -54 -30 -7 -28 -87 -106 -134 -130 -41 -21 -85 -15 -137 19 -21 13 -56 28 -78 31 -22 4 -50 13 -62 21 -35 22 -52 17 -66 -19 -19 -44 -77 -93 -121 -101 -48 -9 -91 14 -115 63 -22 41 -37 51 -80 51 -50 0 -66 21 -65 89 1 37 7 70 18 85 9 14 16 35 16 46 0 51 -69 25 -94 -35 -20 -48 -43 -55 -72 -22 -13 15 -25 27 -28 27 -2 0 -18 -29 -35 -65 -17 -36 -47 -86 -67 -110 -47 -58 -85 -66 -161 -35 -37 15 -62 20 -81 15 -15 -4 -48 -9 -74 -12 -50 -5 -54 -3 -111 70 -15 18 -35 30 -60 34 -36 5 -41 3 -81 -41 -24 -25 -48 -46 -54 -46 -6 0 -25 12 -43 27 -30 25 -41 28 -173 37 -78 5 -165 8 -194 7 -59 -2 -101 16 -125 53 l-17 25 -52 -24 c-29 -14 -68 -25 -86 -25 -66 0 -135 58 -150 127 -5 23 -19 54 -31 69 -11 15 -21 36 -21 47 0 12 -14 35 -31 53 -17 17 -36 49 -44 70 -10 32 -20 41 -51 52 -43 14 -74 44 -74 73 0 10 14 32 31 50 39 40 35 62 -14 70 -40 6 -71 29 -90 67 -9 18 -29 30 -72 43 -33 10 -68 28 -77 40 -25 29 -23 96 4 161 16 41 22 81 26 175 4 117 5 123 32 148 22 21 41 28 88 32 55 5 61 4 78 -19 l19 -25 35 39 c33 38 39 40 117 49 74 9 85 8 122 -10 49 -26 51 -26 51 -2 0 11 9 35 20 53 13 22 23 68 30 133 7 60 19 117 32 143 20 41 20 45 4 101 -22 79 -20 132 9 226 14 44 25 89 25 101 0 12 -26 49 -59 85 -82 90 -92 113 -84 191 4 52 2 70 -12 92 -13 20 -16 38 -11 73 3 27 2 51 -4 58 -6 7 -15 49 -20 94 -5 44 -17 103 -26 130 -15 41 -16 55 -6 88 29 96 75 114 178 68 65 -29 92 -31 120 -10 25 19 63 19 85 -1 17 -15 22 -15 69 5 68 29 253 45 437 37 223 -9 318 -31 367 -85 11 -12 27 -21 37 -21 14 0 19 10 21 48 3 44 5 47 34 50 20 2 36 -4 49 -18 15 -16 30 -20 82 -20 37 0 76 -6 93 -15 35 -18 70 -61 70 -86 0 -15 7 -19 33 -19 17 0 50 -11 72 -25 30 -18 54 -24 98 -25 32 0 73 -7 92 -14 42 -18 85 -62 85 -87 0 -21 15 -25 26 -8 9 15 128 69 152 69 10 0 55 -18 101 -40 45 -22 87 -40 92 -40 5 0 9 15 9 34 0 52 27 66 125 66 53 0 87 5 101 14 39 28 147 56 213 56 56 0 68 3 79 21 16 26 100 65 170 80 36 7 66 22 90 43 52 46 62 49 202 51 140 2 217 22 235 63 7 16 18 22 42 22 19 0 43 10 60 24 16 13 48 29 71 35 30 9 46 20 57 41 24 46 78 80 175 110 96 30 133 53 305 182 91 70 114 92 137 138 19 38 71 98 164 192 130 129 140 137 203 157 55 17 77 31 126 81 63 63 118 90 186 90 25 0 47 8 66 24 30 25 90 46 136 46 20 0 27 5 27 19 0 30 26 49 88 67 58 16 164 69 217 109 17 12 53 34 80 48 28 15 78 56 112 91 44 46 74 68 102 76 27 7 68 37 133 96 106 98 216 173 338 234 126 63 178 104 182 143 2 26 10 35 41 50 47 22 75 15 83 -21 11 -53 12 -53 50 -27 20 14 47 25 59 25 31 0 72 35 96 82 20 40 21 40 64 35 41 -6 44 -5 71 34 39 56 141 149 164 149 11 0 25 -9 32 -20 16 -26 37 -25 125 5 40 13 98 29 128 35 30 6 55 15 55 20 0 5 12 16 28 25 40 23 287 17 325 -8z m24 -3301 c13 -15 23 -35 23 -44 0 -26 -54 -134 -83 -164 -57 -61 -90 -23 -102 119 -6 75 -5 83 15 103 32 32 114 24 147 -14z m-1213 -1317 c14 -17 26 -41 26 -53 0 -30 -41 -90 -64 -94 -27 -6 -36 15 -36 89 0 93 27 114 74 58z m-2316 -1691 c15 -15 16 -63 2 -89 -12 -21 -50 -25 -68 -7 -7 7 -12 25 -12 42 0 51 48 84 78 54z"/>
 <path d="M9020 7378 c19 -5 42 -16 51 -24 21 -19 49 -18 78 2 34 24 10 34 -84 33 -71 -1 -76 -2 -45 -11z"/>
 <path d="M8656 7160 c-16 -5 -38 -17 -50 -28 -11 -10 -57 -27 -101 -37 -44 -10 -104 -26 -134 -36 -72 -25 -111 -25 -118 1 -3 11 -8 20 -11 20 -16 0 -78 -58 -115 -108 -52 -71 -53 -72 -104 -72 -34 0 -45 -5 -54 -22 -22 -44 -63 -78 -113 -94 -28 -10 -64 -26 -79 -38 -35 -26 -58 -14 -71 38 -7 25 -14 35 -24 31 -7 -3 -18 -5 -23 -5 -5 0 -9 -11 -9 -25 0 -43 -53 -87 -198 -164 -154 -81 -240 -142 -347 -242 -68 -64 -120 -99 -147 -99 -8 0 -45 -31 -83 -70 -38 -38 -74 -70 -79 -70 -5 0 -51 -27 -103 -61 -99 -64 -196 -112 -250 -123 -36 -8 -48 -20 -56 -57 -6 -24 -12 -27 -73 -32 -54 -5 -72 -12 -100 -37 -27 -23 -44 -30 -78 -30 -68 0 -106 -18 -176 -85 -53 -50 -77 -65 -125 -79 -56 -17 -69 -27 -196 -154 -85 -86 -144 -154 -157 -182 -27 -57 -57 -86 -197 -187 -125 -91 -193 -128 -274 -149 -68 -18 -124 -55 -150 -100 -15 -24 -31 -36 -63 -44 -23 -7 -58 -25 -76 -42 -20 -17 -43 -28 -55 -26 -13 2 -30 -6 -42 -20 -38 -42 -127 -65 -262 -66 -110 -1 -124 -3 -150 -24 -57 -46 -72 -53 -143 -73 -94 -26 -128 -44 -143 -76 -10 -23 -15 -25 -58 -20 -60 7 -176 -17 -212 -44 -23 -17 -49 -22 -128 -26 l-99 -6 0 -36 c0 -40 -14 -61 -40 -61 -9 0 -53 18 -99 40 -45 22 -92 40 -104 40 -22 0 -96 -34 -149 -67 -22 -14 -29 -15 -42 -4 -9 7 -16 21 -16 31 0 10 -16 32 -35 49 -32 28 -42 31 -103 31 -52 0 -75 5 -102 22 -19 12 -57 24 -85 27 -47 6 -50 8 -60 45 -17 59 -45 76 -125 76 -58 0 -73 4 -98 25 -39 33 -44 32 -36 -10 13 -71 -49 -98 -108 -46 -45 39 -62 46 -143 62 -97 19 -509 19 -585 0 -30 -7 -59 -17 -65 -21 -28 -21 -57 -21 -80 0 l-23 21 -38 -20 c-48 -26 -52 -26 -122 3 -96 39 -104 40 -130 2 -26 -38 -28 -68 -7 -127 16 -45 33 -149 42 -258 3 -36 12 -75 20 -88 12 -18 14 -38 8 -87 -8 -77 -3 -87 75 -171 73 -79 78 -101 47 -207 -37 -124 -38 -131 -22 -189 28 -101 29 -115 7 -145 -15 -21 -24 -58 -32 -129 -7 -60 -20 -118 -33 -145 -12 -25 -24 -58 -27 -75 -7 -39 -38 -44 -86 -14 -31 19 -45 21 -107 16 -69 -6 -74 -8 -107 -47 -39 -45 -72 -52 -92 -20 -17 27 -87 27 -119 1 -21 -17 -23 -27 -25 -132 -2 -96 -7 -124 -28 -178 -14 -36 -26 -74 -26 -86 0 -30 27 -52 86 -71 53 -18 84 -40 84 -59 0 -19 35 -45 61 -45 68 0 92 -71 43 -129 -33 -39 -26 -57 25 -71 41 -11 71 -41 71 -72 0 -9 18 -38 40 -63 22 -25 40 -55 40 -66 0 -10 8 -27 19 -38 10 -10 21 -39 25 -64 6 -37 15 -53 44 -77 33 -28 43 -31 85 -27 28 2 61 13 77 26 41 30 62 26 98 -17 l30 -39 119 -8 c65 -4 143 -7 173 -6 79 2 115 -6 150 -36 l31 -25 44 47 c42 45 46 47 85 42 50 -6 87 -29 108 -68 22 -38 51 -45 119 -29 50 12 57 12 99 -8 67 -33 95 -29 138 18 33 37 54 75 85 153 9 22 17 27 45 27 24 0 39 -7 49 -20 14 -21 15 -21 21 4 8 31 62 74 104 82 27 5 32 2 46 -24 20 -39 20 -62 0 -91 -9 -13 -17 -45 -18 -74 l-1 -51 45 -9 c47 -8 72 -29 102 -86 13 -24 24 -31 46 -31 41 0 94 38 116 83 27 56 57 66 109 39 23 -11 59 -23 80 -26 22 -3 54 -17 72 -31 19 -14 47 -25 63 -25 38 0 124 67 146 114 9 20 22 38 28 42 11 7 121 30 188 40 42 6 119 -30 136 -65 19 -38 67 -81 99 -89 16 -5 53 -4 80 1 34 6 70 5 113 -3 66 -13 59 -15 129 36 28 20 54 12 74 -24 13 -22 32 -32 107 -55 92 -27 122 -49 122 -89 0 -37 73 -14 121 39 38 40 49 66 49 111 0 49 19 66 65 59 28 -5 40 -1 65 23 60 56 120 47 134 -21 13 -64 97 -105 155 -74 40 20 69 19 115 -6 24 -13 48 -18 62 -15 16 4 30 0 45 -15 18 -18 20 -30 17 -107 -3 -92 -5 -89 43 -75 23 6 57 -33 65 -74 6 -31 8 -32 23 -19 23 21 51 3 51 -35 0 -16 12 -57 26 -91 16 -40 23 -70 19 -86 -3 -14 -36 -56 -72 -94 -37 -37 -63 -68 -58 -68 5 0 16 7 25 15 15 14 21 14 53 0 57 -23 86 -20 97 12 16 46 26 58 49 61 21 3 21 4 -9 38 -35 40 -36 46 -13 84 16 28 16 29 -17 60 -30 28 -32 34 -27 76 3 27 13 54 26 68 26 28 27 70 1 119 -11 20 -20 53 -20 72 0 46 25 95 49 95 14 0 20 10 24 39 5 43 80 216 105 244 38 43 80 -3 103 -115 18 -88 20 -90 142 -99 58 -4 114 -12 125 -18 14 -7 21 -25 25 -67 7 -64 17 -79 65 -89 l32 -7 0 60 c0 49 -8 75 -45 154 -24 53 -61 145 -81 204 -20 60 -45 118 -56 130 -21 23 -24 79 -6 121 6 15 27 54 46 85 41 68 56 72 125 28 49 -31 57 -49 32 -70 -22 -18 -19 -33 17 -69 l32 -32 18 36 c11 20 26 39 35 42 30 12 43 -25 44 -131 4 -354 -1 -441 -29 -487 -44 -71 -45 -176 -1 -199 17 -10 23 -7 40 14 25 31 74 34 150 10 l49 -16 37 32 c43 38 207 120 240 120 23 0 29 14 17 44 -4 11 -19 16 -50 16 -60 0 -69 19 -54 111 11 65 11 71 -6 84 -17 12 -18 17 -6 47 27 66 27 68 -5 68 -40 0 -69 31 -54 58 6 11 16 22 22 24 9 3 8 17 -4 53 -22 64 -22 124 -1 132 24 9 46 -8 58 -45 9 -26 14 -29 30 -20 10 6 33 8 51 5 46 -8 49 10 15 74 -34 63 -37 98 -11 130 17 21 29 24 101 27 80 4 82 5 92 33 10 30 44 47 60 31 6 -6 14 -34 19 -62 4 -28 17 -62 29 -77 16 -21 20 -35 15 -64 -6 -33 -3 -40 19 -54 23 -16 27 -16 54 0 48 29 56 49 37 106 -21 62 -17 91 16 106 15 7 34 24 43 38 12 18 25 25 47 25 29 0 30 1 24 33 -4 17 -18 50 -31 73 -29 49 -31 84 -6 84 14 0 17 7 14 45 -4 41 -2 46 25 57 15 7 36 22 45 33 27 32 52 9 58 -53 6 -52 20 -83 20 -43 0 12 7 37 15 56 13 32 12 38 -3 65 -16 28 -16 30 6 52 16 17 38 24 80 28 56 5 57 5 62 40 9 51 17 60 58 60 20 0 46 7 56 15 29 22 73 19 88 -5 7 -11 22 -20 34 -20 12 0 41 -7 64 -15 28 -10 60 -13 94 -9 44 5 56 2 89 -20 l38 -26 26 31 c18 21 33 30 52 28 14 -2 40 5 58 14 39 21 57 21 73 2 16 -19 32 -19 78 2 l37 16 -62 8 c-88 11 -146 39 -162 78 -19 44 1 114 40 141 21 16 29 32 36 73 l8 52 43 0 c48 0 51 15 4 27 -37 10 -47 26 -55 91 -4 26 -20 78 -36 115 -37 89 -45 126 -31 151 9 18 20 21 73 21 39 0 71 6 82 14 19 14 19 15 2 33 -38 42 -8 77 57 66 l37 -6 -3 49 c-3 48 -4 49 -40 55 -46 7 -68 25 -68 54 0 44 21 50 141 37 59 -7 115 -15 123 -18 11 -4 13 4 9 40 -5 39 -2 48 21 71 l27 27 -49 57 c-65 74 -82 110 -82 169 0 47 2 51 59 100 74 64 105 130 137 281 13 62 28 119 34 126 6 7 23 16 37 20 15 3 40 16 56 27 30 22 32 33 11 119 -5 22 5 37 64 99 l70 73 51 -5 c56 -6 66 6 31 37 -28 25 -25 39 15 84 40 44 55 85 55 149 0 60 23 110 57 123 15 5 62 15 105 21 43 6 86 17 96 24 16 11 16 14 -2 33 -34 37 -140 84 -175 76 -23 -5 -35 -1 -51 15 -26 26 -36 20 -51 -30 -11 -36 -10 -41 11 -58 17 -14 21 -24 15 -41 -12 -39 -66 -91 -152 -147 -67 -44 -85 -60 -90 -85 -7 -37 -30 -50 -88 -47 -34 1 -53 -4 -73 -20 -68 -55 -103 -66 -217 -73 -60 -4 -147 -12 -192 -20 -98 -16 -118 -7 -93 39 23 40 96 63 223 70 105 5 108 6 102 26 -4 12 -9 36 -12 53 -6 36 -8 35 77 51 30 5 85 24 122 42 66 31 69 35 104 106 22 45 50 85 72 103 67 55 81 73 103 130 16 44 19 68 15 112 -7 58 13 183 38 244 12 29 11 32 -31 79 -26 29 -43 58 -43 72 0 14 -9 42 -20 64 -11 22 -20 51 -20 65 0 14 9 43 20 65 25 50 26 80 2 80 -43 0 -121 120 -122 186 0 66 -107 178 -204 214 -36 14 -41 19 -44 52 -3 30 -7 37 -32 41 -57 12 -206 16 -234 7z"/>
 <path d="M9314 5695 c-7 -19 -14 -47 -14 -62 0 -24 2 -25 14 -13 12 14 29 110 19 110 -2 0 -11 -16 -19 -35z"/>
 <path d="M8833 3783 c4 -47 10 -90 15 -95 17 -17 92 99 92 141 0 26 -28 41 -76 41 l-37 0 6 -87z"/>
 <path d="M7700 2500 c0 -37 2 -41 16 -30 17 15 15 61 -3 68 -9 2 -13 -9 -13 -38z"/>
 <path d="M5383 825 c-3 -9 -3 -18 0 -21 9 -9 27 6 27 22 0 19 -19 18 -27 -1z"/>
 </g>

</svg>