<!DOCTYPE svg PUBLIC "-//W3C//DTD SVG 20010904//EN" "http://www.w3.org/TR/2001/REC-SVG-20010904/DTD/svg10.dtd">
<svg version="1.0" xmlns="http://www.w3.org/2000/svg" width="983px" height="757px" viewBox="0 0 9830 7570" preserveAspectRatio="xMidYMid meet">
<g id="layer101" fill="#000000" stroke="none">
 <path d="M8800 7108 c-29 -11 -36 -19 -38 -45 -3 -28 0 -33 25 -38 15 -3 46 -15 68 -25 51 -25 101 -25 143 0 26 16 32 26 32 53 0 27 -6 36 -26 46 -40 18 -163 23 -204 9z"/>
 <path d="M8440 6879 c-14 -5 -34 -18 -45 -28 -11 -10 -46 -23 -79 -30 -32 -7 -90 -24 -129 -37 -39 -13 -71 -23 -71 -21 -8 24 -28 43 -50 45 -21 3 -40 -10 -97 -65 -39 -37 -78 -81 -86 -96 -13 -26 -17 -28 -57 -22 -48 8 -55 3 -85 -55 -19 -36 -31 -45 -117 -77 l-51 -20 -9 31 c-9 30 -11 31 -63 29 -59 -1 -81 -17 -81 -60 0 -32 -31 -56 -160 -125 -160 -84 -233 -135 -350 -239 -67 -60 -115 -95 -145 -106 -31 -10 -61 -32 -98 -73 -28 -31 -68 -65 -87 -75 -19 -10 -61 -35 -92 -56 -74 -51 -181 -104 -238 -119 -55 -14 -80 -35 -80 -67 0 -21 -4 -23 -45 -23 -52 0 -102 -18 -128 -47 -11 -13 -26 -19 -42 -16 -13 3 -53 -5 -89 -17 -53 -17 -74 -31 -111 -72 -41 -46 -131 -97 -172 -98 -6 0 -74 -62 -151 -137 -105 -104 -147 -153 -170 -198 -26 -52 -44 -70 -134 -136 -159 -118 -225 -157 -302 -180 -95 -28 -151 -62 -181 -110 -16 -25 -33 -39 -46 -39 -25 0 -54 -15 -80 -41 -11 -11 -33 -19 -52 -19 -25 0 -39 -7 -54 -28 -31 -42 -112 -62 -254 -62 -119 0 -149 -9 -182 -54 -7 -9 -56 -29 -109 -45 -102 -29 -148 -53 -155 -80 -3 -12 -14 -15 -49 -13 -56 5 -185 -23 -216 -47 -17 -13 -49 -20 -116 -24 -52 -3 -100 -11 -108 -18 -8 -6 -14 -27 -14 -45 0 -19 -5 -34 -11 -34 -5 0 -40 16 -76 35 -85 45 -144 47 -223 6 l-54 -28 -21 31 c-32 48 -79 69 -156 72 -52 2 -76 8 -99 24 -17 12 -48 24 -68 27 -32 4 -40 11 -53 43 -24 56 -60 75 -139 75 -51 0 -72 5 -97 23 -34 24 -72 29 -91 10 -7 -7 -12 -29 -12 -50 0 -21 -4 -38 -8 -38 -5 0 -23 13 -41 29 -55 49 -140 64 -407 69 -237 4 -351 -5 -408 -34 -26 -12 -31 -12 -46 1 -22 20 -61 19 -104 -1 -33 -16 -37 -16 -106 10 -94 35 -122 34 -154 -4 -44 -53 -52 -98 -28 -171 12 -35 24 -95 28 -134 3 -38 11 -76 16 -82 6 -7 8 -32 4 -55 -4 -31 -1 -51 11 -73 12 -22 16 -50 14 -111 l-2 -82 66 -73 c36 -40 68 -84 72 -98 3 -14 -3 -53 -16 -92 -32 -101 -36 -157 -16 -232 16 -60 16 -66 0 -96 -9 -18 -20 -70 -25 -115 -10 -102 -25 -160 -45 -176 -8 -7 -15 -23 -15 -36 0 -24 -1 -24 -30 -9 -37 19 -168 20 -213 1 -18 -7 -41 -25 -50 -40 l-18 -26 -29 21 c-24 18 -37 21 -75 16 -60 -9 -104 -32 -115 -63 -6 -14 -10 -69 -10 -122 0 -77 -5 -111 -25 -167 -48 -134 -28 -193 74 -221 48 -14 60 -22 79 -55 18 -31 32 -41 69 -52 65 -19 66 -27 8 -75 -8 -7 -15 -24 -15 -38 0 -31 50 -84 79 -84 23 0 46 -30 57 -73 3 -16 19 -38 35 -49 16 -12 29 -30 29 -41 0 -23 19 -60 36 -70 8 -4 14 -19 14 -33 0 -80 77 -150 164 -148 31 0 67 9 92 21 l40 21 26 -32 c26 -33 28 -33 140 -41 62 -5 154 -9 205 -11 81 -2 96 -5 126 -28 49 -38 81 -34 124 14 20 22 44 40 54 40 34 0 66 -22 82 -55 24 -50 96 -68 161 -41 29 12 37 12 77 -7 59 -27 120 -28 156 -1 35 26 99 121 110 164 11 40 28 49 36 20 4 -17 12 -21 39 -18 27 2 36 10 50 38 20 43 65 72 78 50 5 -8 1 -27 -11 -49 -22 -42 -27 -152 -6 -169 6 -5 28 -13 47 -17 62 -12 67 -15 85 -56 22 -48 40 -59 97 -59 60 0 131 45 149 94 14 40 22 42 59 21 14 -8 39 -14 55 -15 18 0 55 -15 85 -35 73 -46 103 -45 178 5 55 37 81 64 107 115 8 15 24 22 66 26 30 3 65 11 77 18 31 17 105 -16 126 -57 39 -75 124 -113 213 -94 44 9 65 8 114 -4 53 -14 62 -14 93 1 19 9 40 23 47 31 10 12 14 11 23 -8 8 -15 31 -30 66 -41 138 -47 140 -48 154 -82 8 -18 19 -36 25 -39 6 -4 11 -25 11 -46 0 -30 5 -42 21 -50 48 -26 96 20 71 67 -9 16 -3 24 36 54 49 36 102 122 102 166 0 20 5 23 41 23 33 0 47 6 70 31 33 36 50 34 60 -5 23 -84 147 -134 228 -92 25 13 31 13 50 0 12 -9 43 -19 69 -23 l47 -6 -3 -92 c-4 -89 -3 -92 22 -109 22 -14 32 -15 52 -5 19 8 26 8 29 -2 2 -6 9 -32 17 -57 10 -36 18 -46 38 -48 19 -2 30 -15 48 -55 12 -29 22 -59 22 -68 0 -9 -34 -52 -75 -95 -59 -61 -75 -85 -73 -104 3 -23 7 -25 48 -22 25 1 77 2 117 2 85 -2 108 9 116 50 5 23 12 30 30 30 53 0 62 52 18 103 -21 23 -27 37 -20 48 19 31 10 79 -21 108 -33 30 -33 45 2 90 25 33 24 120 -3 172 -24 49 -16 90 21 99 20 5 26 16 37 65 7 33 30 96 51 140 43 87 52 87 67 0 13 -70 35 -113 63 -123 15 -6 69 -13 121 -17 52 -3 98 -8 103 -11 4 -3 8 -25 8 -49 0 -35 6 -52 28 -76 24 -27 37 -33 85 -37 l56 -4 11 43 c18 66 7 122 -51 249 -28 63 -65 158 -81 210 -17 52 -39 102 -49 112 -11 9 -19 23 -19 31 0 13 63 143 74 155 2 2 17 -3 32 -11 17 -9 23 -17 15 -21 -25 -16 -12 -66 30 -111 46 -50 69 -61 97 -46 18 10 20 5 26 -62 4 -40 9 -93 12 -119 3 -26 -1 -79 -10 -122 -9 -46 -12 -84 -7 -98 6 -16 0 -39 -21 -84 -56 -119 -47 -211 25 -254 43 -27 53 -25 87 12 l29 32 54 -17 c81 -26 109 -22 159 20 43 36 193 113 221 113 36 0 47 12 47 50 0 21 -4 50 -10 64 -8 23 -15 26 -55 26 l-45 0 7 89 c4 61 2 90 -6 95 -8 5 -7 15 4 36 28 53 14 90 -33 90 -21 0 -22 2 -12 15 8 9 10 28 6 49 -6 30 -4 35 23 45 16 7 43 10 64 6 28 -6 39 -3 56 14 29 29 26 71 -9 138 -40 75 -30 86 78 91 42 2 83 9 90 14 9 8 12 5 12 -8 0 -11 9 -34 20 -51 13 -22 18 -42 14 -62 -8 -37 9 -67 48 -87 43 -22 94 -12 135 28 38 36 42 70 18 138 -19 53 -19 50 4 50 11 0 28 11 39 25 11 14 29 25 40 25 52 0 67 70 32 147 -12 28 -15 45 -8 49 6 4 8 27 6 55 -3 27 -2 49 3 49 4 0 14 3 23 6 11 4 16 0 16 -14 0 -26 20 -72 32 -72 5 0 4 -9 -2 -19 -13 -25 -13 -122 0 -155 13 -36 44 -33 74 7 35 46 36 106 2 138 -22 21 -23 25 -10 43 8 11 14 35 14 52 0 18 8 38 20 49 27 24 26 61 -2 77 l-23 12 25 7 c14 4 44 7 66 8 48 1 59 11 68 64 6 33 10 37 36 37 16 0 41 5 56 12 23 11 28 10 40 -7 16 -21 85 -36 185 -40 48 -1 77 -8 102 -24 46 -28 81 -27 105 4 13 16 30 25 49 25 16 0 38 7 51 15 19 14 24 14 46 0 23 -15 30 -15 79 -1 64 18 107 50 107 77 0 24 -24 34 -111 47 -95 14 -123 30 -127 70 -3 25 3 38 27 59 31 30 51 70 51 106 0 19 5 22 42 22 l43 0 0 45 c0 42 -2 46 -33 56 -39 12 -52 28 -52 67 0 15 -16 68 -35 117 -19 49 -35 95 -35 102 0 9 17 13 54 13 73 0 111 27 111 79 0 34 2 36 32 36 41 0 53 21 53 97 0 63 -11 83 -46 83 -13 0 -25 4 -28 8 -3 5 44 2 104 -6 60 -8 116 -12 125 -8 12 4 15 18 14 56 -2 40 2 55 19 73 35 37 28 69 -27 132 -53 60 -81 110 -81 143 0 12 19 37 48 61 82 69 129 171 163 353 10 55 11 57 63 82 67 33 81 58 73 134 l-6 58 58 58 57 57 48 -11 c56 -12 76 -2 76 37 0 25 -16 64 -31 73 -4 3 7 25 26 48 36 46 40 60 51 160 7 74 21 87 104 97 79 9 127 23 145 41 24 24 18 68 -12 99 -38 38 -140 85 -185 85 -27 0 -40 6 -48 20 -20 38 -79 21 -100 -30 -13 -32 -17 -35 -39 -21 -11 7 -12 13 -4 23 31 40 46 107 48 218 2 88 7 129 24 174 11 33 21 68 21 79 0 11 -20 42 -45 68 -25 26 -45 58 -45 69 0 11 -9 39 -21 62 l-21 41 22 43 c14 29 20 57 18 85 -3 37 -8 45 -42 64 -45 25 -86 87 -86 131 0 79 -121 226 -212 257 -25 8 -42 20 -40 28 7 30 -9 57 -40 69 -45 16 -276 23 -308 9z m650 -1495 c-17 -45 -12 -112 9 -126 18 -11 14 -15 -42 -52 -46 -30 -65 -50 -72 -73 -9 -31 -12 -33 -58 -33 -40 0 -58 -7 -107 -40 -80 -54 -89 -57 -83 -27 3 13 -2 40 -10 59 l-15 35 47 6 c53 7 188 66 212 93 9 11 29 44 44 74 33 66 63 110 75 110 6 0 5 -11 0 -26z m119 -65 c-13 -26 -19 -24 -19 6 0 17 4 23 15 19 11 -5 12 -11 4 -25z m-521 -316 c-21 -2 -55 -2 -75 0 -21 2 -4 4 37 4 41 0 58 -2 38 -4z"/>
 <path d="M8620 3575 c-16 -19 -9 -199 9 -233 18 -34 65 -30 102 11 71 77 91 178 43 216 -33 26 -134 30 -154 6z"/>
 <path d="M5182 550 c-30 -28 -30 -83 0 -104 30 -21 44 -20 68 4 23 23 28 88 8 108 -18 18 -52 14 -76 -8z"/>
 </g>
<g id="layer102" fill="#5c5c5c" stroke="none">
 <path d="M8853 7113 c15 -2 39 -2 55 0 15 2 2 4 -28 4 -30 0 -43 -2 -27 -4z"/>
 <path d="M8866 6995 c10 -8 26 -14 34 -15 8 0 2 7 -14 15 -36 19 -45 19 -20 0z"/>
 <path d="M8007 6778 c-18 -18 -21 -22 -6 -9 15 13 42 27 61 31 31 8 32 8 5 9 -18 1 -38 -10 -60 -31z"/>
 <path d="M7919 6693 l-34 -38 38 34 c34 33 42 41 34 41 -2 0 -19 -17 -38 -37z"/>
 <path d="M7561 6493 c-1 -30 17 -39 37 -18 16 16 16 17 -5 6 -19 -10 -22 -8 -26 12 l-4 22 -2 -22z"/>
 <path d="M7421 6483 c0 -12 -4 -30 -7 -40 -5 -17 -5 -17 6 0 6 10 9 28 7 40 -4 22 -4 22 -6 0z"/>
 <path d="M7298 6369 c-32 -16 -58 -32 -58 -34 0 -3 27 8 60 25 33 17 60 32 60 35 0 7 2 8 -62 -26z"/>
 <path d="M7158 6294 c-38 -20 -36 -28 2 -9 17 9 30 18 30 20 0 7 -1 6 -32 -11z"/>
 <path d="M7057 6229 c-76 -53 -73 -60 3 -8 53 36 68 49 57 49 -2 0 -29 -18 -60 -41z"/>
 <path d="M6900 6098 c-47 -44 -75 -73 -62 -65 26 16 154 138 150 142 -2 2 -41 -33 -88 -77z"/>
 <path d="M6700 5963 c-23 -20 -50 -50 -61 -67 -12 -17 -1 -9 23 18 23 27 56 57 73 68 16 10 24 18 18 18 -7 0 -31 -16 -53 -37z"/>
 <path d="M6568 5849 c-21 -11 -38 -22 -38 -24 0 -3 18 4 40 15 22 11 40 23 40 25 0 7 0 7 -42 -16z"/>
 <path d="M6482 5796 c-46 -33 -53 -43 -14 -20 19 10 38 25 44 32 15 17 8 14 -30 -12z"/>
 <path d="M6398 5744 c-38 -20 -36 -28 2 -9 17 9 30 18 30 20 0 7 -1 6 -32 -11z"/>
 <path d="M6320 5705 c-14 -8 -20 -14 -15 -14 6 0 21 6 35 14 14 8 21 14 15 14 -5 0 -21 -6 -35 -14z"/>
 <path d="M6012 5553 c-15 -16 -19 -21 -7 -12 11 9 29 21 40 27 11 6 14 12 8 12 -7 0 -25 -12 -41 -27z"/>
 <path d="M5923 5523 c9 -2 25 -2 35 0 9 3 1 5 -18 5 -19 0 -27 -2 -17 -5z"/>
 <path d="M9135 5460 c-21 -22 -40 -49 -42 -60 -2 -16 3 -13 28 15 48 54 63 46 71 -39 2 -16 10 -32 18 -34 13 -5 13 -3 1 12 -10 12 -12 31 -8 69 4 28 3 46 -2 39 -4 -7 -15 -10 -24 -6 -20 7 -21 16 -5 32 7 7 10 12 7 12 -3 0 -22 -18 -44 -40z"/>
 <path d="M5761 5445 c-22 -24 -41 -48 -41 -52 0 -4 4 -3 9 3 51 57 82 94 78 94 -2 0 -23 -20 -46 -45z"/>
 <path d="M5432 5203 c-117 -116 -189 -203 -168 -203 3 0 12 12 20 28 17 31 126 146 233 245 40 37 68 67 63 67 -4 0 -71 -62 -148 -137z"/>
 <path d="M9180 5309 c0 -44 -74 -66 -90 -26 -6 16 -9 17 -9 5 -1 -9 8 -23 19 -31 19 -13 19 -15 4 -21 -9 -4 -14 -9 -11 -12 7 -8 67 28 90 53 11 13 13 23 7 33 -8 13 -10 13 -10 -1z"/>
 <path d="M8725 5030 c-3 -5 -32 -10 -63 -11 -67 -1 -59 -6 19 -11 48 -4 55 -2 56 14 2 20 -3 23 -12 8z"/>
 <path d="M8503 5009 c-62 -8 -103 -23 -103 -38 0 -4 35 -2 78 5 42 7 113 14 157 15 l80 3 -68 3 c-39 2 -65 8 -62 13 7 11 7 11 -82 -1z"/>
 <path d="M5240 4961 c0 -5 -40 -39 -90 -76 -49 -37 -90 -69 -90 -72 0 -3 6 -1 13 4 6 5 49 38 95 72 70 53 97 81 77 81 -3 0 -5 -4 -5 -9z"/>
 <path d="M4995 4774 c-27 -20 -72 -47 -100 -60 -27 -13 -43 -24 -35 -24 18 0 124 61 166 96 43 34 26 28 -31 -12z"/>
 <path d="M4730 4655 c-14 -8 -20 -14 -15 -14 6 0 21 6 35 14 14 8 21 14 15 14 -5 0 -21 -6 -35 -14z"/>
 <path d="M8758 3404 c-15 -24 -25 -44 -23 -44 7 0 58 80 54 84 -2 2 -16 -16 -31 -40z"/>
 <path d="M310 2175 c0 -17 29 -54 53 -66 18 -9 18 -7 -4 13 -15 12 -32 32 -38 43 -6 11 -11 15 -11 10z"/>
 <path d="M2686 1195 c6 -15 43 -40 49 -33 1 2 -11 13 -26 26 -21 17 -27 19 -23 7z"/>
 <path d="M5196 561 c-3 -4 6 -6 21 -3 18 3 30 -1 40 -13 7 -11 13 -14 13 -9 0 27 -60 48 -74 25z"/>
 </g>

</svg>